<?xml version="1.0" standalone="no"?>
<!DOCTYPE svg PUBLIC "-//W3C//DTD SVG 1.1//EN" "http://www.w3.org/Graphics/SVG/1.1/DTD/svg11.dtd">
<svg xmlns="http://www.w3.org/2000/svg">
<metadata>Generated by Fontastic.me</metadata>
<defs>
<font id="html5-v1" horiz-adv-x="512">
<font-face font-family="html5-v1" units-per-em="512" ascent="480" descent="-32"/>
<missing-glyph horiz-adv-x="512" />

<glyph unicode="&#97;" d="M503 112l-219 383c-6 10-17 16-28 16-11 0-22-6-28-16l-219-383c-6-10-6-22 0-32 6-10 16-16 28-16l438 0c12 0 22 6 28 16 6 10 6 22 0 32z m-215 16l-64 0 0 64 64 0z m0 96l-64 0 0 128 64 0z"/>
<glyph unicode="&#98;" d="M112 480c-53 0-96-43-96-96 0-53 43-96 96-96 53 0 96 43 96 96 0 53-43 96-96 96z m240-272l80 80-224 0 0-224 80 80 144-144 64 64z"/>
<glyph unicode="&#99;" d="M208 224l64 64 144-144 80 80 0-224-224 0 80 80z m-96 64c-53 0-96 43-96 96 0 53 43 96 96 96 53 0 96-43 96-96 0-53-43-96-96-96z"/>
<glyph unicode="&#100;" d="M288 416l-64-64-128 128-64-64 128-128-64-64 32-32 192 192z m64-192l64 64-32 32-192-192 32-32 64 64 128-128 64 64z"/>
<glyph unicode="&#101;" d="M320 288l0 128-128 0 0-128-96 0 160-192 160 192z"/>
<glyph unicode="&#102;" d="M288 320l0 96-192-160 192-160 0 96 128 0 0 128z"/>
<glyph unicode="&#103;" d="M416 256l-192 160 0-96-128 0 0-128 128 0 0-96z"/>
<glyph unicode="&#104;" d="M288 288l0 64-64 0 0-64-64 0 96-128 96 128z"/>
<glyph unicode="&#105;" d="M288 288l0 64-128-96 128-96 0 64 64 0 0 64z"/>
<glyph unicode="&#106;" d="M352 256l-128 96 0-64-64 0 0-64 64 0 0-64z"/>
<glyph unicode="&#107;" d="M256 352l-96-128 64 0 0-64 64 0 0 64 64 0z"/>
<glyph unicode="&#108;" d="M256 416l-160-192 96 0 0-128 128 0 0 128 96 0z"/>
<glyph unicode="&#109;" d="M384 224l-64 0c-17 0-32-16-32-32l128 0c0 17-16 32-32 32z m-27 208c-84 0-105-16-117-28-12 12-33 28-116 28-84 0-124-23-124-39l0-293c15 8 60 24 107 28 58 4 117-5 117-16 0-8 4-16 16-16 0 0 0 0 0 0 0 0 0 0 1 0 11 0 15 8 15 16 0 11 60 20 117 16 47-4 93-20 107-28l0 293c0 16-40 39-123 39z m-133-286c-15 8-51 14-96 14-44 0-85-6-96-14 0 0 0 206 0 222 0 16 32 29 96 29 64 0 96-13 96-29 0-16 0-222 0-222z m224 0c-11 8-51 14-96 14-44 0-81-6-96-14 0 0 0 206 0 222 0 16 32 29 96 29 64 0 96-13 96-29 0-16 0-222 0-222z m-64 142l-64 0c-17 0-32-16-32-32l128 0c0 17-16 32-32 32z m0 64l-64 0c-17 0-32-16-32-32l128 0c0 17-16 32-32 32z m-224-64l-64 0c-16 0-32-15-32-32l128 0c0 16-15 32-32 32z m0-64l-64 0c-16 0-32-15-32-32l128 0c0 16-15 32-32 32z m0 128l-64 0c-16 0-32-15-32-32l128 0c0 16-15 32-32 32z"/>
<glyph unicode="&#110;" d="M160 448l0-384 96 64 96-64 0 384z m158-98l-36-26 14-42c1-4-1-6-4-3l-36 26-36-26c-3-3-5-1-4 3l14 42-36 26c-3 2-3 4 2 4l44 0 13 42c2 4 4 4 6 0l13-42 44 0c5 0 5-2 2-4z"/>
<glyph unicode="&#111;" d="M448 416l-128 0 0 33c0 17-14 31-31 31l-66 0c-17 0-31-14-31-31l0-33-128 0c-18 0-32-14-32-32l0-256c0-18 14-32 32-32l384 0c18 0 32 14 32 32l0 256c0 18-14 32-32 32z m-224 24c0 4 4 8 8 8l48 0c4 0 8-4 8-8l0-24-64 0z m224-184l-160 0 0-32-64 0 0 32-160 0 0 128 32 0 0-96 320 0 0 96 32 0z"/>
<glyph unicode="&#112;" d="M192 416l32 0 0-32-32 0z m-64 0l32 0 0-32-32 0z m-64 0l32 0 0-32-32 0z m384-320l-384 0 0 256 384 0z m0 288l-192 0 0 32 192 0z m32 32c0 18-14 32-32 32l-384 0c-18 0-32-14-32-32l0-320c0-18 14-32 32-32l384 0c18 0 32 14 32 32z"/>
<glyph unicode="&#113;" d="M194 434c-26-29-19-74-19-74 0 0 27-32 80-32 53 0 80 32 80 32 0 0 7 45-19 73 17 9 26 22 22 31-4 10-24 11-44 2-7-3-14-7-18-12-7 1-13 2-21 2-7 0-13-1-19-2-5 5-11 9-18 12-20 9-40 8-44-2-4-9 5-21 20-30z m201-207c-4 1-8 1-12 2 0 1 0 2 0 3 0 17-2 33-6 48 8-1 19 1 29 6 20 9 33 24 28 34-4 10-24 11-44 2-9-4-17-10-22-15-4 9-8 18-13 25-15-12-44-31-84-35l0-161c0 0 0-16-16-16-16 0-16 16-16 16l0 161c-40 4-68 23-83 35-5-7-9-16-13-24-5 5-13 10-21 14-20 9-40 8-44-2-5-10 8-25 28-34 10-4 19-6 27-6-3-15-6-31-6-48 0-1 0-2 0-3-3-1-6-1-10-2-26-5-46-19-44-30 1-11 23-16 49-10 4 1 7 1 10 2 5-20 12-39 22-55-6-3-12-8-18-14-16-16-22-35-14-43 8-8 27-1 43 15 5 4 9 9 11 14 22-21 49-34 79-34 30 0 58 13 80 35 3-5 7-10 12-15 16-16 35-23 43-15 8 8 2 27-14 43-7 7-13 11-20 14 10 17 18 36 22 56 4-1 8-2 12-3 26-6 48-1 49 10 2 11-18 25-44 30z"/>
<glyph unicode="&#114;" d="M352 256l-32 0 0-64 32 0z m-64 0l-32 0 0-64 32 0z m64 96l-32 0 0-64 32 0z m64-96l-32 0 0-64 32 0z m-128-96l-32 0 0-64 32 0z m96 352l-32 0 0-64 32 0z m-256 0l-32 0 0-64 32 0z m288-160l-32 0 0-64 32 0z m-128 0l-32 0 0-64 32 0z m-128-192l-32 0 0-64 32 0z m-64 96l-32 0 0-64 32 0z m64 0l-32 0 0-64 32 0z m256 224l0-64-96 0 0 64-160 0 0-64-96 0 0 64-64 0 0-448 480 0 0 448z m32-416l-416 0 0 320 416 0z m-352 96l-32 0 0-64 32 0z m128 192l-32 0 0-64 32 0z m0-192l-32 0 0-64 32 0z m-64 192l-32 0 0-64 32 0z m64-96l-32 0 0-64 32 0z m128-96l-32 0 0-64 32 0z"/>
<glyph unicode="&#115;" d="M384 416l-192-192-64 64-64-64 128-128 256 256z"/>
<glyph unicode="&#116;" d="M445 254l-25 25c-3 3-9 3-12 0l-52-53-60-60-47 47c-3 3-8 3-12 0l-24-25c-4-4-4-9 0-12l52-52 9-9 16-16c3-4 8-4 12 0l24 25 119 118c3 3 3 9 0 12z m-266-32l25 24c21 22 58 22 79 0l13-12 57 54 0 160-288 0 0-352 160 0-46 46c-22 22-22 58 0 80z m-18 194l160 0 0-32-160 0z m0-64l160 0 0-32-160 0z m-32-96l-32 0 0 32 32 0z m0 64l-32 0 0 32 32 0z m0 64l-32 0 0 32 32 0z m32-96l32 0 0-32-32 0z"/>
<glyph unicode="&#117;" d="M352 352l-96-96-96 96-64-64 160-160 160 160z"/>
<glyph unicode="&#118;" d="M368 352l-64 64-160-160 160-160 64 64-96 96z"/>
<glyph unicode="&#119;" d="M208 416l-64-64 96-96-96-96 64-64 160 160z"/>
<glyph unicode="&#120;" d="M256 384l-160-160 64-64 96 96 96-96 64 64z"/>
<glyph unicode="&#121;" d="M256 416c-88 0-160-72-160-160 0-88 72-160 160-160 88 0 160 72 160 160 0 88-72 160-160 160z m0-64c14 0 27-3 39-8l-127-127c-5 12-8 25-8 39 0 53 43 96 96 96z m0-192c-14 0-27 3-39 9l127 126c5-12 8-25 8-39 0-53-43-96-96-96z"/>
<glyph unicode="&#122;" d="M384 64l-320 0 0 288 320 0 0-96 32 0 0 160c0 17-14 32-32 32l-96 0c0 35-28 64-64 64-35 0-64-29-64-64l-96 0c-17 0-32-15-32-32l0-352c0-18 15-32 32-32l320 0c18 0 32 14 32 32l0 64-32 0z m-256 352c15 0 15 0 32 0 18 0 32 14 32 32 0 17 15 32 32 32 18 0 32-15 32-32 0-18 16-32 32-32 16 0 17 0 32 0 16 0 32-15 32-32l-256 0c0 19 14 32 32 32z m-32-256l64 0 0 32-64 0z m224 64l0 64-128-96 128-96 0 64 160 0 0 64z m-224-128l96 0 0 32-96 0z m160 224l-160 0 0-32 160 0z m-96-64l-64 0 0-32 64 0z"/>
<glyph unicode="&#65;" d="M224 224l128 0 32 32-32 32-64 0 0 96-32 32-32-32z m32 256c-124 0-224-100-224-224 0-124 100-224 224-224 124 0 224 100 224 224 0 124-100 224-224 224z m0-384c-88 0-160 72-160 160 0 88 72 160 160 160 88 0 160-72 160-160 0-88-72-160-160-160z"/>
<glyph unicode="&#66;" d="M416 352c-4 0-9-1-13-1-24 57-81 97-147 97-66 0-123-40-147-97-4 0-9 1-13 1-53 0-96-43-96-96 0-53 43-96 96-96 10 0 20 2 29 5 17-19 41-31 67-35l0 32c-25 6-46 22-56 44-11-9-25-14-40-14-35 0-64 29-64 64 0 35 29 64 64 64 13 0 24-4 34-10 11 60 63 106 126 106 63 0 115-46 125-106 10 6 22 10 35 10 35 0 64-29 64-64 0-35-29-64-64-64-5 0-10 1-15 2-14-21-38-34-65-34-6 0-11 1-16 2l0-32c5-1 11-2 16-2 31 0 58 12 78 32 1 0 1 0 2 0 53 0 96 43 96 96 0 53-43 96-96 96z m-128-96l-64 0 0-160-64 0 96-96 96 96-64 0z"/>
<glyph unicode="&#67;" d="M256 320l-96-96 64 0 0-160 64 0 0 160 64 0z m160 32c-4 0-9-1-13-1-24 57-81 97-147 97-66 0-123-40-147-97-4 0-9 1-13 1-53 0-96-43-96-96 0-53 43-96 96-96 10 0 20 2 29 5 17-19 41-31 67-35l0 32c-25 6-46 22-56 44-11-9-25-14-40-14-35 0-64 29-64 64 0 35 29 64 64 64 13 0 24-4 34-10 11 60 63 106 126 106 63 0 115-46 125-106 10 6 22 10 35 10 35 0 64-29 64-64 0-35-29-64-64-64-5 0-10 1-15 2-14-21-38-34-65-34-6 0-11 1-16 2l0-32c5-1 11-2 16-2 31 0 58 12 79 32 0 0 0 0 1 0 53 0 96 43 96 96 0 53-43 96-96 96z"/>
<glyph unicode="&#68;" d="M336 416l-48-48 112-112-112-112 48-48 144 160z m-160 0l-144-160 144-160 48 48-112 112 112 112z"/>
<glyph unicode="&#69;" d="M416 448l-320 0c-31 0-64-32-64-64l0-192c0-64 64-64 64-64l32 0 0-128 128 128c0 0 129 0 160 0 31 0 64 34 64 64l0 192c0 31-32 64-64 64z"/>
<glyph unicode="&#70;" d="M160 256c0 32 0 96 0 96 0 0-80 0-96 0-16 0-32-16-32-32 0-16 0-144 0-160 0-16 16-32 32-32 16 0 32 0 32 0l0-96 97 96c0 0 81 0 96 0 15 0 31 16 31 32 0 16 0 32 0 32 0 0-64 0-96 0-32 0-64 32-64 64z m288 192c-16 0-208 0-224 0-16 0-32-16-32-32 0-16 0-144 0-160 0-16 16-32 32-32 16 0 95 0 95 0l97-96 0 96c0 0 16 0 32 0 16 0 32 16 32 32 0 16 0 144 0 160 0 16-16 32-32 32z"/>
<glyph unicode="&#71;" d="M256 280c-31 0-56-25-56-56 0-31 25-56 56-56 31 0 56 25 56 56 0 4-1 8-2 12 41 48 104 122 138 164 12 14-1 28-16 16-43-35-116-97-163-138-4 1-9 2-13 2z m16 104c0 9-7 16-16 16-9 0-16-7-16-16 0-9 7-16 16-16 9 0 16 7 16 16z m96-128c0-9 7-16 16-16 9 0 16 7 16 16 0 9-7 16-16 16-9 0-16-7-16-16z m-176 128c-9 0-16-7-16-16 0-9 7-16 16-16 9 0 16 7 16 16 0 9-7 16-16 16z m-32-64c0 9-7 16-16 16-9 0-16-7-16-16 0-9 7-16 16-16 9 0 16 7 16 16z m-48-64c0-9 7-16 16-16 9 0 16 7 16 16 0 9-7 16-16 16-9 0-16-7-16-16z m224 112c0 9-7 16-16 16-9 0-16-7-16-16 0-9 7-16 16-16 9 0 16 7 16 16z m108-24l-34-45c4-14 6-28 6-43 0-88-72-160-160-160-88 0-160 72-160 160 0 88 72 160 160 160 33 0 64-10 89-27l40 30c-36 28-80 45-129 45-115 0-208-93-208-208 0-115 93-208 208-208 115 0 208 93 208 208 0 31-7 61-20 88z"/>
<glyph unicode="&#72;" d="M256 32c-106 0-192 29-192 64 0 19 0 40 0 64 0 6 3 11 7 16 21-28 96-48 185-48 89 0 164 20 185 48 4-5 7-10 7-16 0-19 0-38 0-64 0-35-86-64-192-64z m0 128c-106 0-192 29-192 64 0 19 0 40 0 64 0 3 1 7 3 10 1 2 2 4 4 6 21-28 96-48 185-48 89 0 164 20 185 48 2-2 3-4 4-6 2-3 3-7 3-10 0-19 0-38 0-64 0-35-86-64-192-64z m0 128c-106 0-192 29-192 64 0 10 0 21 0 32 0 10 0 21 0 32 0 35 86 64 192 64 106 0 192-29 192-64 0-10 0-21 0-32 0-10 0-20 0-32 0-35-86-64-192-64z m0 160c-71 0-128-14-128-32 0-18 57-32 128-32 71 0 128 14 128 32 0 18-57 32-128 32z"/>
<glyph unicode="&#73;" d="M256 320c-35 0-64-29-64-64 0-35 29-64 64-64 3 0 6 0 8 1-23 3-40 23-40 47 0 27 21 48 48 48 24 0 44-17 47-40 1 2 1 5 1 8 0 35-29 64-64 64z m192 64l-64 0-64 64-128 0-64-64-64 0c-18 0-32-14-32-32l0-224c0-18 14-32 32-32l384 0c18 0 32 14 32 32l0 224c0 18-14 32-32 32z m-240 32l96 0 32-32-160 0z m-128-288c-9 0-16 7-16 16l0 144 32 0 0 32-32 0 0 16c0 9 7 16 16 16l91 0c-2-2-4-4-6-5-49-50-49-132 0-182l38-37z m176 32c-53 0-96 43-96 96 0 53 43 96 96 96 53 0 96-43 96-96 0-53-43-96-96-96z m160 112l-75 80 75 0z"/>
<glyph unicode="&#74;" d="M288 416c-18 0-32-14-32-32 0-18 14-32 32-32 18 0 32 14 32 32 0 18-14 32-32 32z m160-96l-64-64 0 32c0 15-11 28-25 31 15 17 25 40 25 65 0 53-43 96-96 96-51 0-92-39-96-89-17 16-39 25-64 25-53 0-96-43-96-96 0-53 43-96 96-96l-32 0 0-64 32 0 0-64c0-18 14-32 32-32l192 0c18 0 32 14 32 32l0 32 64-64 32 0 0 256z m-320 32c-18 0-32-14-32-32 0-18 14-32 32-32l0-32c-35 0-64 29-64 64 0 35 29 64 64 64 35 0 64-29 64-64l-32 0c0 18-14 32-32 32z m160-192l-64 0 0 64 64 0z m64 55c-17 16-35 35-37 36-3 3-7 5-11 5l-96 0c-9 0-16-7-16-16l0-96c0-4 2-8 4-11 0 0 20-19 37-37l-57 0c-9 0-16 7-16 16l0 160c0 9 7 16 16 16l160 0c9 0 16-7 16-16z m-64 105c-35 0-64 29-64 64 0 35 29 64 64 64 35 0 64-29 64-64 0-35-29-64-64-64z m160-160l-32 32 0 64 32 32z"/>
<glyph unicode="&#75;" d="M384 512l-256 0c-18 0-32-14-32-32l0-448c0-18 14-32 32-32l256 0c18 0 32 14 32 32l0 448c0 18-14 32-32 32z m-144-32l32 0c9 0 16-7 16-16 0-9-7-16-16-16l-32 0c-9 0-16 7-16 16 0 9 7 16 16 16z m32-448l-32 0c-9 0-16 7-16 16 0 9 7 16 16 16l32 0c9 0 16-7 16-16 0-9-7-16-16-16z m112 64l-256 0 0 320 256 0z"/>
<glyph unicode="&#76;" d="M288 352l-64 0 0-64-64 0 0-64 64 0 0-64 64 0 0 64 64 0 0 64-64 0z m160 128c-16 0-368 0-384 0-16 0-32-16-32-32 0-16 0-368 0-384 0-16 16-32 32-32 16 0 368 0 384 0 16 0 32 16 32 32 0 16 0 368 0 384 0 16-16 32-32 32z m-32-368c0-8-8-16-16-16-7 0-279 0-288 0-9 0-16 6-16 16 0 8 0 280 0 288 0 8 8 16 16 16 8 0 281 0 288 0 8 0 16-8 16-16 0-8 0-280 0-288z"/>
<glyph unicode="&#77;" d="M448 480l-384 0c-16 0-32-16-32-32l0-384c0-16 16-32 32-32l384 0c16 0 32 16 32 32l0 384c0 16-16 32-32 32z m-32-368c0-8-8-16-16-16l-288 0c-9 0-16 6-16 16l0 288c0 8 8 16 16 16l288 0c8 0 16-8 16-16z m-256 112l192 0 0 64-192 0z"/>
<glyph unicode="&#78;" d="M256 448c-96 0-208-64-256-192 48-96 144-160 256-160 112 0 208 64 256 160-48 128-160 192-256 192z m0-320c-96 0-176 64-192 128 16 64 96 128 192 128 96 0 176-64 192-128-16-64-96-128-192-128z m0 224c-10 0-19-2-28-5 17-7 28-24 28-43 0-27-21-48-48-48-19 0-36 11-43 28-3-9-5-18-5-28 0-53 43-96 96-96 53 0 96 43 96 96 0 53-43 96-96 96z"/>
<glyph unicode="&#79;" d="M448 416c-16 0-168 0-176 0-8 0-16 8-16 16 0 8 0 0 0 16 0 16-16 32-32 32-16 0-144 0-160 0-16 0-32-16-32-32 0-16 0-352 0-352l448 0c0 0 0 272 0 288 0 16-16 32-32 32z m-224 0l-160 0c0 0 0 7 0 16 0 8 8 16 16 16 8 0 121 0 128 0 8 0 16-8 16-16 0-9 0-16 0-16z"/>
<glyph unicode="&#80;" d="M352 480l-288 0 0-448 384 0 0 352z m-256-32l128 0c-7-2-14-8-17-21-7-25-4-66 7-105-12-41-61-138-64-144-8-3-33-12-54-30z m142-154c28-75 47-75 67-84-42-6-74-11-116-29-2-3 38 73 49 113z m178-230l-320 0 0 0c0 0 1 0 1 0 17 0 42 10 90 91 19 8 36 14 39 15 30 7 63 13 94 16 27-13 64-23 84-24 5 0 8 1 12 1z m0 155c-12 8-27 13-45 13-12 0-25-1-39-2-13 6-46 16-73 95 8 52 6 87 6 87 3 26-12 36-26 36 0 0 0 0 0 0l81 0 96-96z"/>
<glyph unicode="&#81;" d="M352 480l-288 0 0-448 384 0 0 352z m64-416l-320 0 0 384 224 0 96-96z m-288 320l0-256 64 0c0 35 29 64 64 64-35 0-64 29-64 64 0 35 29 64 64 64 35 0 64-29 64-64 0-35-29-64-64-64 35 0 64-29 64-64l64 0 0 192-64 64z"/>
<glyph unicode="&#82;" d="M352 480l-288 0 0-448 384 0 0 352z m64-416l-320 0 0 384 224 0 96-96z m-160 224c-74 0-128-56-128-160 16 68 66 96 128 96l0-64 128 96-128 96c0 0 0-40 0-64z"/>
<glyph unicode="&#83;" d="M288 384l-160 0 0-32 160 0z m64 96l-288 0 0-448 384 0 0 352z m64-416l-320 0 0 384 224 0 96-96z m-288 64l256 0 0 32-256 0z m0 64l256 0 0 32-256 0z m0 64l256 0 0 32-256 0z"/>
<glyph unicode="&#84;" d="M224 224l0 32-32 0 0-32z m0 64l0 32-32 0 0-32z m0 64l0 32-32 0 0-32z m-64-32l32 0 0 32-32 0z m192 160l-288 0 0-448 384 0 0 352z m64-416l-320 0 0 384 96 0 0-32 32 0 0 32 96 0 96-96z m-256 320l32 0 0 32-32 0z m0-128l32 0 0 32-32 0z m0-64l-32-32 0-64 128 0 0 64-32 32-32 0 0 32-32 0z m64-32l0-32-64 0 0 32z"/>
<glyph unicode="&#85;" d="M217 489c25-67 12-103-16-132-31-32-78-56-112-103-44-63-52-200 109-236-68 35-82 138-9 203-19-63 16-103 59-88 43 14 71-16 70-51-1-24-10-45-35-56 105 18 147 105 147 171 0 87-78 99-39 172-46-4-62-35-58-85 3-33-31-55-57-40-20 12-20 36-2 54 39 38 54 126-57 191z"/>
<glyph unicode="&#86;" d="M480 384l-112 0-32-32 96 0-64-64-224 0-64 64 96 0-32 32-112 0 0-32 80-80-80-80 0-32 112 0 32 32-96 0 64 64 224 0 64-64-96 0 32-32 112 0 0 32-80 80 80 80z m-128 32l-64 0 0 96-64 0 0-96-64 0 96-96z m-192-288l64 0 0-96 64 0 0 96 64 0-96 96z"/>
<glyph unicode="&#87;" d="M256 337c-45 0-81-36-81-81 0-45 36-81 81-81 45 0 81 36 81 81 0 45-36 81-81 81z m162-128l-14-35 26-51 3-7-36-36-59 28-35-14-18-55-2-7-51 0-22 62-36 14-51-26-7-3-36 36 28 59-14 35-55 18-7 2 0 51 62 22 14 36-26 51-3 7 36 36 59-28 35 14 18 55 2 7 51 0 22-62 36-14 51 26 7 3 36-36-28-59 14-35 55-18 7-2 0-51z"/>
<glyph unicode="&#88;" d="M448 416l-176 0c-8 0-16 8-16 16 0 8 0 0 0 16 0 16-16 32-32 32l-160 0c-16 0-32-16-32-32 0-16 0-352 0-352l448 0c0 0 0 272 0 288 0 16-16 32-32 32z m-384 16c0 8 8 16 16 16l128 0c8 0 16-8 16-16 0-9 0-16 0-16l-160 0c0 0 0 7 0 16z m192-272l0 64c-62 0-112-28-128-96 0 104 54 160 128 160 0 24 0 64 0 64l128-96z"/>
<glyph unicode="&#89;" d="M256 32l160 0 0 160-160 0z m-192 0l160 0 0 160-160 0z m192 292c16 2 33 4 44 5 42 4 79 42 84 84 5 42-26 72-67 67-33-3-63-27-77-57-14 30-44 54-77 58-41 4-72-26-67-68 5-42 43-80 84-84 11-1 28-3 44-5 0-2 0-4 0-4l32 0c0 0 0 2 0 4z m54 118c22 2 39-14 36-37-2-22-23-43-45-45-23-3-39 13-37 36 3 23 23 43 46 46z m-131-82c-22 2-43 23-45 45-3 23 14 39 36 37 23-3 43-23 46-46 2-23-14-39-37-36z m77-40l0-96 192 0 0 96z m-224-96l192 0 0 96-192 0z"/>
<glyph unicode="&#90;" d="M448 151c0 0 0 153 0 201 0 48-48 96-96 96-32 0-32 0-32 0l0 64-96-96 96-96 0 64c0 0 16 0 32 0 16 0 32-16 32-32 0-16 0-201 0-201-19-11-32-32-32-55 0-36 29-64 64-64 36 0 64 28 64 64 0 23-13 44-32 55z m-32-87c-17 0-32 14-32 32 0 17 15 32 32 32 18 0 32-15 32-32 0-18-14-32-32-32z m-224 64c0 0-16 0-32 0-16 0-32 16-32 32 0 16 0 201 0 201 19 11 32 31 32 55 0 35-28 64-64 64-35 0-64-29-64-64 0-24 13-44 32-55 0 0 0-153 0-201 0-48 48-96 96-96 32 0 32 0 32 0l0-64 96 96-96 96z m-96 256c-17 0-32 14-32 32 0 17 15 32 32 32 18 0 32-15 32-32 0-18-14-32-32-32z"/>
<glyph unicode="&#48;" d="M272 320l48-48-48-48 32-32 80 80-80 80z m-208 160l0-416 384 0 0 416z m352-384l-320 0 0 352 320 0z m-176 128l-48 48 48 48-32 32-80-80 80-80z"/>
<glyph unicode="&#49;" d="M129 160l64-96-128 0-33 128 129 32z m224 64l32-64-64-96 128 0 32 128z m-42 0l-108 0 22-51-32-109 128 0-32 109z m42 96l-192 0-64-32 320 0z m-32 128l-64-32-64 32-32-96 192 0z"/>
<glyph unicode="&#50;" d="M352 416c-35 0-64-29-64-64 0-24 13-44 32-55l0-9c0-32-32-64-64-64-26 0-47-6-64-15l0 152c19 11 32 31 32 55 0 35-28 64-64 64-35 0-64-29-64-64 0-24 13-44 32-55l0-210c-19-11-32-31-32-55 0-35 29-64 64-64 36 0 64 29 64 64 0 17-6 32-17 44 10 11 25 20 49 20 64 0 128 64 128 128l0 9c19 11 32 32 32 55 0 36-28 64-64 64z m-192 32c18 0 32-15 32-32 0-18-14-32-32-32-17 0-32 14-32 32 0 17 15 32 32 32z m0-384c-17 0-32 14-32 32 0 17 15 32 32 32 18 0 32-15 32-32 0-18-14-32-32-32z m192 256c-17 0-32 14-32 32 0 17 15 32 32 32 18 0 32-15 32-32 0-18-14-32-32-32z"/>
<glyph unicode="&#51;" d="M379 288c-14 55-63 96-123 96-60 0-109-41-123-96l-101 0 0-64 101 0c14-55 63-96 123-96 60 0 109 41 123 96l101 0 0 64z m-123-96c-35 0-64 29-64 64 0 35 29 64 64 64 35 0 64-29 64-64 0-35-29-64-64-64z"/>
<glyph unicode="&#52;" d="M384 288c-24 0-44-13-55-32-3 0-6 0-9 0-66 0-128 50-150 112 13 11 22 29 22 48 0 35-29 64-64 64-35 0-64-29-64-64 0-24 13-44 32-55l0-210c-19-11-32-31-32-55 0-35 29-64 64-64 35 0 64 29 64 64 0 24-13 44-32 55l0 115c42-44 100-74 160-74 3 0 6 0 9 0 11-19 31-32 55-32 35 0 64 29 64 64 0 35-29 64-64 64z m-256-224c-18 0-32 14-32 32 0 18 14 32 32 32 18 0 32-14 32-32 0-18-14-32-32-32z m0 320c-18 0-32 14-32 32 0 18 14 32 32 32 18 0 32-14 32-32 0-18-14-32-32-32z m256-192c-18 0-32 14-32 32 0 18 14 32 32 32 18 0 32-14 32-32 0-18-14-32-32-32z"/>
<glyph unicode="&#53;" d="M416 151c0 0 0 153 0 201 0 48-48 96-96 96-32 0-32 0-32 0l0 64-96-96 96-96 0 64c0 0 16 0 32 0 16 0 32-16 32-32 0-16 0-201 0-201-19-11-32-32-32-55 0-36 29-64 64-64 36 0 64 28 64 64 0 23-13 44-32 55z m-32-87c-17 0-32 14-32 32 0 17 15 32 32 32 18 0 32-15 32-32 0-18-14-32-32-32z m-256 416c-35 0-64-29-64-64 0-24 13-44 32-55l0-210c-19-11-32-31-32-55 0-35 29-64 64-64 36 0 64 29 64 64 0 24-13 44-32 55l0 210c19 11 32 31 32 55 0 35-28 64-64 64z m0-416c-17 0-32 14-32 32 0 17 15 32 32 32 18 0 32-15 32-32 0-18-14-32-32-32z m0 320c-17 0-32 14-32 32 0 17 15 32 32 32 18 0 32-15 32-32 0-18-14-32-32-32z"/>
<glyph unicode="&#54;" d="M256 448c-106 0-192-86-192-192 0-106 86-192 192-192 13 0 26 1 38 4-5 2-6 20-1 30 6 11 23 40 6 49-17 10-12 14-23 25-10 11-6 13-6 16-3 9 10 24 10 26 1 1 1 7 1 8-1 2-8 7-10 7-2 0-3-3-5-3-3-1-14 7-17 8-2 2-3 7-7 10-3 4-4 1-9 3-5 2-22 8-35 13-13 6-14 13-14 18 0 6-8 13-12 18-3 6-4 13-5 12-2-2 7-22 5-22-1-1-4 5-8 10-3 5 4 2-8 26-12 24 4 36 5 48 1 12 10-5 5 3-5 8 0 25-3 31-4 6-25-7-25-7 0 6 18 16 31 25 14 9 22 2 32-1 11-4 11-3 8 1-4 3 1 5 10 3 8-1 10-11 23-10 12 1 1-2 3-5 1-4-2-3-11-9-8-6 1-6 15-16 15-11 10 7 9 15-2 8 11 1 11 1 9-6 7 0 13-2 7-2 25-17 25-17-22-12-8-14-5-16 4-3-7-9-7-9-5 5-6 0-9-1-3-2 0-6 0-6-16-3-12-19-12-23 0-4-10-10-12-16-3-5 6-18 2-18-5-1-10 18-36 11-8-2-26-11-17-30 10-18 25 5 31 3 5-3-2-15-1-15 1 0 15 0 16-16 1-16 21-15 25-15 4-1 19 11 21 12 2 1 10 8 28-3 18-10 27-9 33-13 7-4 2-13 8-16 6-2 29 1 35-8 6-10-24-58-33-63-10-5-14-17-23-25-10-8-23-17-35-25-11-6-13-18-18-21 86 19 150 95 150 187 0 106-86 192-192 192z m45-180c-3-1-8-6-21 2-14 8-23 6-24 8 0 0-1 3 5 3 12 2 27-11 30-11 3 0 5 4 11 2 6-2 2-3-1-4z m-63 161c-1 1 1 2 3 4 1 1 0 3 1 4 3 3 17 6 14-1-3-8-16-9-18-7z m34-25c-5 1-16 2-14 4 8 8-3 10-10 11-6 0-9 4-6 4 4 1 17 0 19-2 3-2 15-7 15-10 1-4 0-7-4-7z m40 2c-3-3-22 11-26 14-16 13-24 9-27 11-4 2-2 5 3 10 5 4 19-2 27-3 8-1 18-7 18-15 0-7 9-14 5-17z"/>
<glyph unicode="&#55;" d="M352 384l-96 0 0-320 96 0z m128-96l-96 0 0-224 96 0z m-448-256l0 64 32 0 0 32-32 0 0 64 32 0 0 32-32 0 0 64 32 0 0 32-32 0 0 64 32 0 0 32-32 0 0 64 32 0 0 32-64 0 0-512 512 0 0 32z m192 192l-96 0 0-160 96 0z"/>
<glyph unicode="&#56;" d="M256 80c200 157 192 212 192 256 0 43-36 96-96 96-60 0-96-64-96-64 0 0-36 64-96 64-60 0-96-53-96-96 0-44-7-99 192-256z"/>
<glyph unicode="&#57;" d="M96 224l32-192 96 0 0 160 64 0 0-160 96 0 32 192-160 160z m320 96l0 128-64 0 0-64-96 96-256-256 64 0 192 192 192-192 64 0z"/>
<glyph unicode="&#34;" d="M350 256c59 42 98 120 98 192 0 35-86 64-192 64-106 0-192-29-192-64 0-72 40-150 99-192-59-43-99-120-99-192 0-36 86-64 192-64 106 0 192 28 192 64 0 72-40 149-98 192z m-94 224c71 0 128-15 128-32 0-18-57-32-128-32-70 0-128 14-128 32 0 17 58 32 128 32z m-32-353c-77-4-119-20-126-41 8 57 37 94 70 125 37 34 56 30 56 52l0-137z m-52 176c-35 27-61 65-71 107 35-16 91-26 155-26 64 0 121 10 156 26-10-42-36-80-71-107-12 8-35 17-85 17-49 0-72-9-84-17z m116-176l0 136c0-21 20-17 56-51 33-31 63-69 71-126-7 21-50 38-127 41z"/>
<glyph unicode="&#36;" d="M416 416l-320 0-32-192 0-128 384 0 0 128z m-64-192l-32-64-128 0-32 64-56 0 24 160 256 0 25-160z"/>
<glyph unicode="&#37;" d="M256 320c18 0 32 14 32 32 0 17-14 32-32 32-17 0-32-15-32-32 0-18 15-32 32-32z m0 160c-123 0-224-101-224-224 0-124 101-224 224-224 124 0 224 100 224 224 0 123-100 224-224 224z m0-384c-88 0-160 71-160 160 0 88 72 160 160 160 89 0 160-72 160-160 0-89-71-160-160-160z m32 160c0 16-16 32-32 32-16 0-16 0-32 0-16 0-32-16-32-32l32 0c0-16 0-80 0-96 0-16 16-32 32-32 16 0 16 0 32 0 16 0 32 16 32 32l-32 0c0 16 0 80 0 96z"/>
<glyph unicode="&#38;" d="M256 480c-124 0-224-100-224-224 0-124 100-224 224-224 124 0 224 100 224 224 0 124-100 224-224 224z m0-384c-88 0-160 72-160 160 0 88 72 160 160 160 88 0 160-72 160-160 0-88-72-160-160-160z m-32 32l64 0 0 64-64 0z m0 96l64 0 0 160-64 0z"/>
<glyph unicode="&#39;" d="M352 354l-48-48 80-82 128 128-48 48-79-79z m-96-258c-88 0-160 72-160 160 0 88 72 160 160 160 44 0 84-18 113-47l45 45c-40 41-96 66-158 66-124 0-224-100-224-224 0-124 100-224 224-224 124 0 224 100 224 224l-100-100c4 5-38-60-124-60z m32 288l-64 0 0-160 64 0z m-64-256l64 0 0 64-64 0z"/>
<glyph unicode="&#40;" d="M352 128c-27-20-60-32-96-32-88 0-160 72-160 160 0 23 5 44 14 64l-46 0 0 50c-20-34-32-72-32-114 0-124 100-224 224-224 54 0 102 20 141 51l19-19 0 96-96 0z m-128 0l64 0 0 64-64 0z m64 256l-64 0 0-160 64 0z m192-128c0 124-100 224-224 224-54 0-102-20-141-51l-19 19 0-96 96 0-32 32c27 20 60 32 96 32 88 0 160-72 160-160 0-23-5-44-13-64l45 0 0-50c20 34 32 72 32 114z"/>
<glyph unicode="&#45;" d="M352 480c-70 0-128-57-128-128 0-10 1-19 3-28l-195-196 0-32 32-32 64 0 32 32 0 32 32 0 0 32 32 0 0 32 64 0 35 35c10-2 19-3 29-3 71 0 128 57 128 128 0 71-57 128-128 128z m-128-224l-160-160 0 32 160 160z m160 96c-18 0-32 14-32 32 0 18 14 32 32 32 17 0 32-14 32-32 0-18-15-32-32-32z"/>
<glyph unicode="&#46;" d="M257 416c17 0 31 14 31 31 1 18-14 33-33 33-17-1-30-14-31-31 0-19 15-34 33-33z m232-192l-9 0-63 123c9 1 18 4 26 8 12 5 14 21 5 31l0 0c-6 6-14 8-22 4-7-3-17-6-26-6-28 0-41 32-144 32-103 0-115-32-143-32-10 0-20 3-27 6-7 3-16 2-21-4l-1 0c-9-10-6-25 6-31 8-4 17-7 26-8l-64-123-9 0c-4 0-7-4-6-8 5-32 46-56 95-56 50 0 90 24 96 56 0 4-3 8-7 8l-9 0-63 122c41 4 63 25 95 25l0-243c-17 0-32-15-32-32l-35 0c-14 0-29-15-29-32l256 0c0 17-14 32-35 32l-29 0c0 17-14 32-32 32l0 243c32 0 54-21 96-25l-64-122-9 0c-4 0-7-4-6-8 5-32 46-56 95-56 50 0 90 24 96 56 0 4-3 8-7 8z m-329 0l-96 0 48 90z m192 0l48 90 48-90z"/>
<glyph unicode="&#47;" d="M256 480c-88 0-160-72-160-160 0-52 25-99 64-128l0-96c0-18 14-32 32-32 0-18 14-32 32-32l64 0c18 0 32 14 32 32 18 0 32 14 32 32l0 96c39 29 64 76 64 128 0 88-72 160-160 160z m64-368c0-9-7-16-16-16l-96 0c-9 0-16 7-16 16l0 16 128 0z m32 123c-17-16-32-21-32-62l0-13-32 0 0 64 64 64 0 32-32 32-32-32-32 32-32-32-32 32-32-32 0-32 64-64 0-64-32 0 0 13c0 41-15 46-32 62-20 23-32 53-32 85 0 71 57 128 128 128 71 0 128-57 128-128 0-32-12-62-32-85z m-96-11l-64 64 0 32 32-32 32 32 32-32 32 32 0-32z"/>
<glyph unicode="&#58;" d="M384 384l-69 0c24-16 47-45 54-64l15 0c32 0 64-32 64-64 0-32-33-64-64-64l-96 0c-32 0-64 32-64 64 0 11 3 22 9 32l-69 0c-2-11-4-21-4-32 0-64 64-128 128-128 64 0 32 0 96 0 64 0 128 64 128 128 0 64-64 128-128 128z m-240-192l-15 0c-33 0-64 32-64 64 0 32 32 64 64 64l96 0c31 0 64-32 64-64 0-12-4-23-9-32l68 0c3 10 4 21 4 32 0 64-63 128-127 128-64 0-33 0-97 0-64 0-128-64-128-128 0-64 64-128 128-128l69 0c-24 16-46 44-53 64z"/>
<glyph unicode="&#59;" d="M224 224l224 0 0 64-224 0z m0-128l224 0 0 64-224 0z m0 320l0-64 224 0 0 64z m-120-128l39 0 0 128-18 0-43-12 0-25 22 1z m55-103c0 18-6 39-48 39-17 0-32-3-42-8l1-33c10 5 21 7 33 7 13 0 16-5 16-14 0-13-15-29-55-56l0-25 96 0 0 34-45-1c24 15 43 33 43 56z"/>
<glyph unicode="&#60;" d="M64 224l64 0 0 64-64 0z m0 128l64 0 0 64-64 0z m0-256l64 0 0 64-64 0z m128 128l256 0 0 64-256 0z m0 128l256 0 0 64-256 0z m0-256l256 0 0 64-256 0z"/>
<glyph unicode="&#61;" d="M256 512c-88 0-160-72-160-160 0-89 80-208 160-352 80 144 160 263 160 352 0 88-71 160-160 160z m0-224c-35 0-64 28-64 64 0 35 29 64 64 64 36 0 64-29 64-64 0-36-28-64-64-64z"/>
<glyph unicode="&#62;" d="M416 288c-16 0-32 0-32 0 0 0 0 32 0 96 0 64-64 128-128 128-64 0-128-64-128-128 0-64 0-96 0-96 0 0-16 0-32 0-16 0-32-16-32-32 0-16 0-208 0-224 0-16 16-32 32-32 16 0 304 0 320 0 16 0 32 16 32 32 0 16 0 208 0 224 0 16-16 32-32 32z m-96-64l-192 0 0-32 192 0 0-32-192 0 0-32 192 0 0-32-192 0 0-32 192 0 0-32-224 0 0 224 224 0z m0 64l-128 0c0 0 0 64 0 96 0 32 32 64 64 64 32 0 64-32 64-64 0-32 0-96 0-96z"/>
<glyph unicode="&#63;" d="M32 416l0-320 448 0 0 320z m384-32l-160-132-160 132z m-352-32l126-96-126-96z m32-224l127 103 33-25 33 25 127-103z m352 32l-126 96 126 96z"/>
<glyph unicode="&#64;" d="M320 320l-160 0 0-32 160 0z m-96 64l-64 0 0-32 64 0z m192 14l0 50-70 0-90 64-90-64-70 0 0-50-64-46 0-320 448 0 0 320z m-288 18l256 0 0-122-128-106-128 106z m-64-128l126-96-126-96z m32-224l127 103 33-25 33 25 127-103z m352 32l-126 96 126 96z"/>
<glyph unicode="&#91;" d="M416 352l-96 0 0 160-128 0 0-160-96 0 160-192z m-320-352l320 0 0 96-320 0z"/>
<glyph unicode="&#93;" d="M96 160l96 0 0-160 128 0 0 160 96 0-160 192z m0 352l0-96 320 0 0 96z"/>
<glyph unicode="&#94;" d="M96 320l-64 0 0-128 64 0 128-96 32 0 0 320-32 0z m368-16l-32 32-48-48-48 48-31-32 47-48-48-48 32-32 48 48 48-48 32 32-48 48z"/>
<glyph unicode="&#95;" d="M384 480l-64-64 96-96 64 64z m-352-352l0-96 96 0 256 256-96 96z m96-64l-64 0 0 64 32 0 0-32 32 0z"/>
<glyph unicode="&#96;" d="M224 160l32-160 32 160c-10-1-21-2-32-2-10 0-22 1-32 2z m127 149c-16 9-31 30-31 43l0 32c0 11 6 19 12 26 7 6 12 14 12 22 0 27-31 48-88 48-57 0-87-21-87-48 0-8 4-16 12-22 5-7 11-15 11-26l0-32c0-13-14-34-31-43-19-9-35-27-35-44 0-37 51-74 130-74 80 0 130 37 130 74 0 17-15 34-35 44z"/>
<glyph unicode="&#124;" d="M64 128l192 128-192 128z m384 128l-192 128 0-256z"/>
<glyph unicode="&#125;" d="M128 96l96 0 0 320-96 0z m160 320l0-320 96 0 0 320z"/>
<glyph unicode="&#126;" d="M128 416l256-160-256-160z"/>
<glyph unicode="&#92;" d="M256 256l192-128 0 256z m-192 0l192-128 0 256z"/>
<glyph unicode="&#41;" d="M448 416l-384 0 192-192z m-384-256l0-64 384 0 0 64z"/>
<glyph unicode="&#42;" d="M224 256l192-192 0 384z m-128-192l64 0 0 384-64 0z"/>
<glyph unicode="&#43;" d="M96 64l192 192-192 192z m256 384l0-384 64 0 0 384z"/>
<glyph unicode="&#44;" d="M64 96l384 0-192 192z m0 320l0-64 384 0 0 64z"/>
<glyph unicode="&#57344;" d="M502 410l-1 0c-12 12-32 12-45 0l-22-23-46 46 23 22c13 13 13 33 0 45l0 1c-13 12-33 12-45 0l-24-24c-31 20-73 17-101-11l-12-12c-55-54-61-139-20-200l-2-2c-31-32-31-82 0-113 6-7 6-17 0-23-6-7-16-6-22 0l-45 44c-31 32-82 32-114 1-31-31-31-82 0-113l5-5c12-12 32-12 44 0l1 1c12 12 12 32 0 45l-4 4c-6 6-7 16-1 22 6 7 17 7 23 1l45-45c31-31 83-32 114 0 31 31 31 81 0 113-7 6-7 16 0 22l2 2c61-41 146-35 200 20l13 12c27 28 30 70 10 101l24 24c12 12 12 32 0 45z m-57-147c-19-19-49-19-68 0l-113 113c-19 19-19 49 0 68 15 15 37 18 55 9l-21-21c-13-12-13-32 0-45l0 0c12-12 32-12 45 0l23 23 45-45-23-23c-12-13-12-33 0-45l1 0c12-13 32-13 44 0l21 20c9-17 6-39-9-54z"/>
<glyph unicode="&#57345;" d="M288 288l0 128-64 0 0-128-128 0 0-64 128 0 0-128 64 0 0 128 128 0 0 64z"/>
<glyph unicode="&#57346;" d="M128 256c0 71 57 128 128 128 71 0 128-57 128-128 0-71-57-128-128-128-71 0-128 57-128 128z"/>
<glyph unicode="&#57347;" d="M384 128l-256 0 0 256 256 0z"/>
<glyph unicode="&#57348;" d="M400 256l-86 83-71-99-35 221-100-205-76 0 0-64 115 0 29 58 29-173 115 163 51-48 109 0 0 64z"/>
<glyph unicode="&#57349;" d="M153 317c8 8 8 21 0 29-10 11-15 24-15 38 0 14 5 28 15 38 8 8 8 22 0 30-4 4-9 6-14 6-5 0-10-2-14-6-18-19-28-43-28-68 0-24 10-49 28-67 8-9 20-9 28 0z m-78 178c-5 5-10 7-15 7-5 0-11-2-15-7-30-30-45-71-45-111 0-40 15-80 45-111 8-8 21-8 30 0 8 8 8 22 0 30-22 23-33 52-33 81 0 30 11 59 33 81 8 9 8 22 0 30z m182-163c28 0 51 23 51 52 0 29-23 52-51 52-29 0-52-23-52-52 0-29 23-52 52-52z m210 163c-8 8-21 8-29 0-9-8-9-22 0-30 21-22 32-52 32-81 0-30-11-59-32-81-9-9-9-22 0-30 4-4 9-7 14-7 5 0 11 3 15 7 30 30 45 71 45 111 0 40-15 80-45 111z m-210-204c-14 0-27 3-39 9l-100-268 47 0 28 32 127 0 27-32 48 0-100 268c-12-6-25-9-38-9z m-1-16l33-115-64 0z m-63-179l32 32 64 0 31-32z m166 355c-8-8-8-21 0-29 10-11 15-24 15-38 0-14-5-28-15-38-8-8-8-22 0-30 4-4 9-6 14-6 5 0 10 2 14 6 18 19 28 43 28 68 0 24-10 49-28 67-8 9-20 9-28 0z"/>
<glyph unicode="&#57350;" d="M96 128l320 0 0 256-320 0z m64 192l192 0 0-128-192 0z m-96 96l96 0 0 32-128 0 0-128 32 0z m0-224l-32 0 0-128 128 0 0 32-96 0z m288 256l0-32 96 0 0-96 32 0 0 128z m96-352l-96 0 0-32 128 0 0 128-32 0z"/>
<glyph unicode="&#57351;" d="M96 416l-64 0 0-32 96 0 0 96-32 0z m-64-320l64 0 0-64 32 0 0 96-96 0z m384 320l0 64-32 0 0-96 96 0 0 32z m-32-384l32 0 0 64 64 0 0 32-96 0z m-256 128l256 0 0 192-256 0z m64 128l128 0 0-64-128 0z"/>
<glyph unicode="&#57352;" d="M493 96l-125 125c18 29 29 62 29 99 0 106-86 192-192 192-106 0-192-86-192-192 0-106 86-192 192-192 36 0 70 11 99 28l125-124c9-9 23-9 32 0l32 32c9 9 9 23 0 32z m-288 96c-71 0-128 57-128 128 0 71 57 128 128 128 70 0 128-57 128-128 0-71-58-128-128-128z"/>
<glyph unicode="&#57353;" d="M64 64l64 0 0 96-64 0z m64 384l-64 0 0-160 64 0z m160 0l-64 0 0-64 64 0z m-256-256l128 0 0 64-128 0z m192-128l64 0 0 192-64 0z m-32 224l128 0 0 64-128 0z m256 160l-64 0 0-192 64 0z m-96-224l0-64 128 0 0 64z m32-160l64 0 0 64-64 0z"/>
<glyph unicode="&#57354;" d="M352 224l0 64 128 0 0 64-128 0 0 64-96-72 0 72-128 64 256 0 0-96 32 0 0 128-352 0 0-416 192-96 0 96 160 0 0 160-32 0 0-128-128 0 0 168z"/>
<glyph unicode="&#57355;" d="M320 128l-128 0 0 288-128 64 256 0 0-96 32 0 0 128-352 0 0-416 192-96 0 96 160 0 0 160-32 0z m192 192l-128 96 0-64-128 0 0-64 128 0 0-64z"/>
<glyph unicode="&#57356;" d="M480 320l-157 20-67 140-67-140-157-20 115-104-29-152 138 74 139-74-30 152z"/>
<glyph unicode="&#57357;" d="M392 275c6-41-7-84-39-115-47-47-119-52-173-17l38 36-138 19 19-134 42 40c76-55 183-50 251 18 40 39 58 91 56 142z m-233 77c47 46 119 52 173 17l-38-36 138-19-19 134-42-40c-76 55-183 50-251-18-40-39-58-91-56-142l56-11c-6 41 7 84 39 115z"/>
<glyph unicode="&#57358;" d="M224 480l-128 0-64-64 0-128 256-256 192 192z m-160-176l0 96 48 48 96 0 224-224-144-144z m192 48l-96-96 128-128 96 96z m-48-96l48 48 80-80-48-48z m-16 112c0 26-21 48-48 48-26 0-48-22-48-48 0-27 22-48 48-48 27 0 48 21 48 48z m-48-16c-9 0-16 7-16 16 0 9 7 16 16 16 9 0 16-7 16-16 0-9-7-16-16-16z"/>
<glyph unicode="&#57359;" d="M416 448l-128 0c0 0 0 12 0 16 0 9-7 16-16 16-9 0-16-7-16-16 0-9 0-16 0-16l-128 0c-18 0-32-14-32-32l0-32c0-18 14-32 32-32l0-288c0-18 14-32 32-32l224 0c18 0 32 14 32 32l0 288c18 0 32 14 32 32l0 32c0 18-14 32-32 32z m-32-368c0-9-7-16-16-16l-192 0c-9 0-16 7-16 16l0 272 32 0 0-240c0-9 7-16 16-16 9 0 16 7 16 16l0 240 32 0 0-240c0-9 7-16 16-16 9 0 16 7 16 16l0 240 32 0 0-240c0-9 7-16 16-16 9 0 16 7 16 16l0 240 32 0z m32 312c0-4-4-8-8-8l-272 0c-4 0-8 4-8 8l0 16c0 4 4 8 8 8l272 0c4 0 8-4 8-8z"/>
<glyph unicode="&#57360;" d="M64 320l192-192 192 192z"/>
<glyph unicode="&#57361;" d="M160 256l192-192 0 384z"/>
<glyph unicode="&#57362;" d="M160 448l192-192-192-192z"/>
<glyph unicode="&#57363;" d="M256 384l-192-192 384 0z"/>
<glyph unicode="&#57364;" d="M96 320l-64 0 0-128 64 0 128-96 32 0 0 320-32 0z m205-19c-6 7-16 7-22 0-7-6-7-16 0-22 12-13 12-33 0-46-7-6-7-16 0-22 6-7 16-7 22 0 25 25 25 65 0 90z m46 46c-7 6-17 6-23 0-6-7-6-17 0-23 37-38 37-98 0-136-6-6-6-16 0-23 6-6 16-6 23 0 49 50 49 132 0 182z m45 45c-6 6-17 6-23 0-6-6-6-17 0-23 63-62 63-164 0-226-6-6-6-17 0-23 6-6 17-6 23 0 75 75 75 197 0 272z"/>
<glyph unicode="&#57365;" d="M416 352l-64 64-96-96-96 96-64-64 96-96-96-96 64-64 96 96 96-96 64 64-96 96z"/>
<glyph unicode="&#57366;" d="M416 288l-128 0 96 224-288-288 128 0-96-224z"/>
<glyph unicode="&#57367;" d="M416 434l-320 0c-10 0-17-7-17-17l0-16c0-10 7-17 17-17l320 0c10 0 17 7 17 17l0 16c0 10-7 17-17 17z m-26-135l0 16c0 10-8 17-17 17l-234 0c-9 0-17-7-17-17l0-16c0-10 8-17 17-17l234 0c9 0 17 7 17 17z m8-171l-284 0c-10 0-18-7-18-17l0-16c0-10 8-17 18-17l284 0c10 0 18 7 18 17l0 0 0 16 0 0c0 10-8 17-18 17z m-25 85c0 10-8 17-18 17l-198 0c-10 0-18-7-18-17l0-16c0-10 8-17 18-17l198 0c10 0 18 7 18 17 0 0 0 0 0 0z"/>
<glyph unicode="&#57368;" d="M416 433l-320 0c-10 0-17-8-17-17l0-16c0-10 7-18 17-18l320 0c10 0 17 8 17 18l0 16c0 9-7 17-17 17z m0-101l-320 0c-10 0-17-8-17-17l0-16c0-10 7-18 17-18l320 0c10 0 17 8 17 18l0 16c0 9-7 17-17 17z m0-101l-320 0c-10 0-17-8-17-18l0-16c0-9 7-17 17-17l320 0c10 0 17 8 17 17l0 16c0 10-7 18-17 18z m0-101l-320 0c-10 0-17-8-17-18l0-16c0-9 7-17 17-17l320 0c10 0 17 8 17 17l0 16c0 10-7 18-17 18z"/>
<glyph unicode="&#57369;" d="M416 434l-320 0c-10 0-17-7-17-17l0-16c0-10 7-17 17-17l320 0c10 0 17 7 17 17l0 16c0 10-7 17-17 17z m-320-152l234 0c9 0 17 7 17 17l0 16c0 10-8 18-17 18l-234 0c-10 0-17-8-17-18l0-16c0-10 7-17 17-17z m285-154l-285 0c-10 0-17-7-17-17l0-16c0-10 7-17 17-17l285 0c10 0 17 7 17 17l0 0 0 16 0 0c0 10-7 17-17 17z m-285 52l199 0c9 0 17 7 17 17 0 0 0 0 0 0l0 16c0 10-8 17-17 17l-199 0c-10 0-17-7-17-17l0-16c0-10 7-17 17-17z"/>
<glyph unicode="&#57370;" d="M416 434l-320 0c-10 0-17-7-17-17l0-16c0-10 7-17 17-17l320 0c10 0 17 7 17 17l0 16c0 10-7 17-17 17z m0-102l-234 0c-9 0-17-7-17-17l0-16c0-10 8-17 17-17l234 0c10 0 17 7 17 17l0 16c0 10-7 17-17 17z m0-204l-285 0c-10 0-17-7-17-17l0-16c0-10 7-17 17-17l285 0c9 0 17 7 17 17l0 0 0 16 0 0c0 10-8 17-17 17z m17 85c0 10-7 17-17 17l-199 0c-9 0-17-7-17-17l0-16c0-10 8-17 17-17l199 0c10 0 17 7 17 17 0 0 0 0 0 0z"/>
<glyph unicode="&#57371;" d="M24 154l-24-144c0-3 1-6 2-8 0 0 0 0 0 0 2-1 5-2 8-2l144 25c3 0 6 2 6 5 1 3 1 6-2 8l-28 29 76 75c3 4 3 9 0 12l-52 52c-3 4-9 4-12 0l-76-75-28 28c-2 2-5 3-8 2-3-1-5-4-6-7z m464 204l24 144c0 3-1 6-2 8 0 0 0 0 0 0-2 1-5 2-8 2l-144-25c-3 0-6-2-6-5-1-3-1-6 2-8l28-29-76-75c-3-4-3-9 0-12l52-52c3-4 9-4 12 0l76 75 28-28c2-2 5-3 8-2 3 1 5 4 6 7z m-130-334l144-24c3 0 6 1 8 2 0 0 0 0 0 0 1 2 2 5 2 8l-25 144c0 3-2 6-5 6-3 1-6 1-8-2l-29-28-75 76c-4 3-9 3-12 0l-52-52c-4-3-4-9 0-12l75-76-28-28c-2-2-3-5-2-8 1-3 4-5 7-6z m-204 464l-144 24c-3 0-6-1-8-2 0 0 0 0 0 0-1-2-2-5-2-8l25-144c0-3 2-6 5-6 3-1 6-1 8 2l29 28 75-76c4-3 9-3 12 0l52 52c4 3 4 9 0 12l-75 76 28 28c2 2 3 5 2 8-1 3-4 5-7 6z"/>
<glyph unicode="&#57372;" d="M184 54l24 145c1 3 0 5-2 7 0 0 0 0 0 0-2 2-5 3-7 3l-145-25c-3 0-5-2-6-5-1-3 0-7 2-9l28-28-76-76c-3-3-3-8 0-11l53-53c3-3 8-3 11 0l76 76 28-28c3-2 6-3 9-2 3 1 5 3 5 6z m144 404l-24-145c-1-3 0-5 2-7 0 0 0 0 0 0 2-2 5-3 7-3l145 25c3 0 5 2 6 5 1 3 0 7-2 9l-28 28 76 76c3 3 3 8 0 11l-53 53c-3 3-8 3-11 0l-76-76-28 28c-3 2-6 3-9 2-3-1-5-3-5-6z m130-274l-145 24c-3 1-5 0-7-2 0 0 0 0 0 0-2-2-3-5-3-7l25-145c0-3 2-5 5-6 3-1 7 0 9 2l28 28 76-76c3-3 8-3 11 0l53 53c3 3 3 8 0 11l-76 76 28 28c2 3 3 6 2 9-1 3-3 5-6 5z m-404 144l145-24c3-1 5 0 7 2 0 0 0 0 0 0 2 2 3 5 3 7l-25 145c0 3-2 5-5 6-3 1-6 0-9-2l-28-28-76 76c-3 3-8 3-11 0l-53-53c-3-3-3-8 0-11l76-76-28-28c-2-3-3-6-2-9 1-3 3-5 6-5z"/>
<glyph unicode="&#57373;" d="M26 168l-26-158c0-2 1-5 3-7 0 0 0 0 0 0 2-2 5-3 7-3l158 27c3 0 6 3 7 6 1 3 0 7-3 9l-30 31 82 82c4 4 4 9 0 13l-57 57c-3 3-9 3-12 0l-83-83-31 31c-2 2-5 3-9 2-3-1-5-4-6-7z m460 176l26 158c0 2-1 5-3 7 0 0 0 0 0 0-2 2-5 3-7 3l-158-27c-3 0-6-3-7-6-1-3 0-7 3-9l30-31-82-82c-4-4-4-9 0-13l57-57c3-3 9-3 12 0l83 83 31-31c2-2 5-3 9-2 3 1 5 4 6 7z"/>
<glyph unicode="&#57374;" d="M201 59l26 158c0 3-1 6-3 8 0 0 0 0 0 0-2 2-5 3-8 2l-157-26c-3-1-6-3-7-7-1-3 0-6 2-9l31-30-82-83c-4-3-4-9 0-13l56-56c4-4 10-4 13 0l83 82 30-31c3-2 6-3 9-2 4 1 6 4 7 7z m110 394l-26-158c0-3 1-6 3-8 0 0 0 0 0 0 2-2 5-3 8-2l157 26c3 1 6 3 7 7 1 3 0 6-2 9l-31 30 82 83c4 3 4 9 0 13l-56 56c-4 4-10 4-13 0l-83-82-30 31c-3 2-6 3-9 2-4-1-6-4-7-7z"/>
<glyph unicode="&#57375;" d="M422 204c0 0 0 1 0 1l0 0-88 51 89 51 0 0c4 3 6 10 3 14 0 0 0 1 0 1l0 0-28 49 0 0c-3 4-9 6-14 3l0 0-89-51 0 103 0 0c0 6-5 10-11 10 0 0 0 0 0 0l0 0-56 0 0 0c-6 0-10-5-10-10l0 0 0-103-90 52 0 0c-5 2-11 0-14-4 0 0 0-1 0-1l0 0-28-49 0 0c-3-4-1-10 4-13l0 0 0 0c0 0 0 0 0 0 0 0 0-1 0-1l89-51-87-50c-1-1-2-1-2-1-5-3-7-9-4-14l0 0 29-51 0 0c3-4 9-5 13-2 0 0 0 0 0 0l1 0 89 51 0-100c-1-1-1-2-1-3 0-5 5-10 10-10l0 0 59 0 0 0c5 1 8 5 8 10 0 0 0 0 0 0l1 0 0 103 87-50c0-1 1-1 2-1 4-3 11-2 14 3l0 0 28 49c0 0 0 0 0 0 0 0 0 0 0 0l1 2 0 0c1 5 0 10-5 12z"/>
<glyph unicode="&#57376;" d="M448 256c0 106-86 192-192 192-106 0-192-86-192-192 0-106 86-192 192-192 34 0 66 9 94 25 3 1 5 4 5 7 0 3-2 6-4 7l0 0-34 21 0 0c-1 1-3 2-5 2-1 0-2 0-3-1l0 0c-17-6-34-10-53-10-78 0-141 63-141 141 0 78 63 141 141 141 73 0 134-56 140-128 0-51-22-80-39-80-10 0-17 7-17 21 0 2 1 8 1 11l22 101-1 0c0 1 1 1 1 2 0 3-3 6-7 6l-37 0c-4 0-6-2-7-5l0 0-4-18c-9 17-28 30-56 30-52 0-102-50-102-111 0-43 26-75 70-75 24 0 49 14 65 36l0-3c4-17 51-39 78-39 39 0 85 27 85 102l0 0c0 3 0 6 0 9z m-158-35c-10-14-26-30-50-30-23 0-37 16-37 40 0 33 26 65 62 65 20 0 32-13 36-23z"/>
<glyph unicode="&#57377;" d="M453 256c0 5-2 9-5 11l0 0-48 28 28 47 0 1c1 3 1 8-1 12-2 4-6 6-10 7l0 0-56 0 0 55 0 0c0 4-3 8-6 10-4 2-9 2-13 1l0 0-48-28-27 46 0 0c-3 4-7 6-11 6-5 0-9-2-11-6l-1 0-27-47-47 27 0 0c-4 2-8 2-12-1-4-2-7-6-7-10l0 0 0-55-55 0 0 0c-4 0-8-2-10-6-2-4-2-9-1-13l0 0 27-46-48-28 0 0c-3-3-5-7-5-11 0-5 2-9 5-11l0 0 48-28-28-48 0 0c-1-3-1-8 1-12 2-4 6-6 11-7l0 0 55 0 0-55 0 0c0-4 3-8 6-10 4-2 9-2 13-1l0 0 48 28 27-46 0 0c3-4 7-6 11-6 5 0 9 2 11 6l1 0 27 47 47-27 0 0c4-2 8-2 12 1 4 2 7 6 7 10l0 0 0 55 55 0 0 0c4 0 8 2 10 6 2 4 2 9 1 13l0 0-27 46 48 28 0 0c3 3 5 7 5 11z"/>
<glyph unicode="&#57378;" d="M453 256c0 5-2 9-5 11l0 0-48 28 28 47 0 1c1 3 1 8-1 12-2 4-6 6-10 7l0 0-56 0 0 55 0 0c0 4-3 8-6 10-4 2-9 2-13 1l0 0-48-28-27 46 0 0c-3 4-7 6-11 6-5 0-9-2-11-6l-1 0-27-47-47 27 0 0c-4 2-8 2-12-1-4-2-7-6-7-10l0 0 0-55-55 0 0 0c-4 0-8-2-10-6-2-4-2-9-1-13l0 0 27-46-48-28 0 0c-3-3-5-7-5-11 0-5 2-9 5-11l0 0 48-28-28-48 0 0c-1-3-1-8 1-12 2-4 6-6 11-7l0 0 55 0 0-55 0 0c0-4 3-8 6-10 4-2 9-2 13-1l0 0 48 28 27-46 0 0c3-4 7-6 11-6 5 0 9 2 11 6l1 0 27 47 47-27 0 0c4-2 8-2 12 1 4 2 7 6 7 10l0 0 0 55 55 0 0 0c4 0 8 2 10 6 2 4 2 9 1 13l0 0-27 46 48 28 0 0c3 3 5 7 5 11z m-229-58l-51 22 23-38-13-8-34 59 13 8 49-21-22 37 13 7 34-59z m24 14l-34 59 41 24 7-11-29-17 7-13 28 17 7-11-29-17 8-13 29 17 6-11z m96 55l-33 35 13-46-14-8-51 49 14 8 36-36-14 49 10 5 36-36-15 49 15 8 17-69z"/>
<glyph unicode="&#57379;" d="M413 310l-314 0c-3 0-6-3-6-7l0-225c0-3 3-6 6-6l314 0c3 0 6 3 6 6l0 225c0 4-3 7-6 7z m-211-191c-11 0-23 3-32 6-2 1-3 2-2 4l3 22c0 1 0 1 1 2 1 0 2 1 3 0 10-4 19-5 29-5 12 0 20 5 20 13 0 9-5 14-30 16-2 0-3 1-3 3l0 22c0 2 1 3 3 3 21 2 24 8 24 13 0 3 0 9-15 9-7 0-16-2-24-6-1-1-2-1-3 0-1 0-2 1-2 2l-3 22c0 1 1 3 2 3 10 5 22 7 37 7 26 0 44-12 44-30 0-14-7-24-21-31 12-4 25-13 25-31 0-27-22-44-56-44z m136 6c0-2-1-4-3-4l-27 0c-1 0-3 2-3 4l0 88-17-7c-1 0-2 0-3 0-1 1-2 2-2 3l-3 22c0 1 1 2 2 3l38 19c1 0 1 0 2 0l13 0c2 0 3-1 3-3l0-125z m75 286l-34 0 0-16c0-16-9-34-36-34-26 0-36 18-36 34l0 16-102 0 0-16c0-16-9-34-36-34-26 0-36 18-36 34l0 16-34 0c-3 0-6-3-6-6l0-66c0-4 3-7 6-7l314 0c3 0 6 3 6 7l0 66c0 3-3 6-6 6z m-244-29c11 0 15 4 15 13l0 32c0 9-4 13-15 13-11 0-15-4-15-13l0-32c0-9 4-13 15-13z m174 0c11 0 15 4 15 13l0 32c0 9-4 13-15 13-11 0-15-4-15-13l0-32c0-9 4-13 15-13z"/>
<glyph unicode="&#57380;" d="M305 239c0-27-22-48-49-48-27 0-48 21-48 48 0 27 21 49 48 49 27 0 49-22 49-49z m139 149l0 0-85 0 0 15c0 10-9 19-19 19l-168 0c-10 0-19-9-19-19l0-15-85 0 0 0c-11 0-19-8-19-19l0-259c0-11 8-19 19-19l0-1 376 0 0 1c11 0 19 8 19 19l0 259c0 11-8 19-19 19z m-187-247c-54 0-98 44-98 98 0 55 44 99 98 99 55 0 99-44 99-99 0-54-44-98-99-98z m181 171l-76 0 0 51 76 0 0-51z"/>
<glyph unicode="&#57381;" d="M434 389c-1 0-2 0-3 0l0 0c-17-9-37-14-58-14-38 0-73 17-95 45-21 19-49 31-80 31-29 0-56-11-77-29-4 9-13 15-24 15-15 0-27-12-27-27l0-322c0-15 12-27 27-27 15 0 27 12 27 27l0 145c17 9 36 13 56 13 39 0 73-17 96-45 21-19 49-31 79-31 33 0 63 14 84 36 2 2 3 4 3 6l0 169c0 5-4 8-8 8z"/>
<glyph unicode="&#57382;" d="M394 189c0 0 0 0 0 0l0 0-40 19 0 0c-3 2-6 1-8-2 0 0 0-1 0-1-11-22-36-39-64-39-34 0-62 17-76 45l100 0c0 0 1 0 1 0 3 0 6 3 6 6l0 21c0 3-3 6-6 6l0 0-111 0c0 4 0 8 0 12 0 5 0 9 0 13l111 0c0 0 0 0 0 0 0 0 0 0 0 0l0 0 0 0c3 0 6 3 6 6l0 21c0 3-3 6-6 6 0 0 0 0-1 0l-100 0c15 27 42 44 76 44 28 0 53-17 64-40l1 0c1-2 4-3 7-2l0 0 40 19 0 0c0 0 0 0 0 0 3 2 4 5 3 8l0 0c0 0 0 0 0 0 0 0 0 0 0 0 0 0-1 0-1 0-19 35-54 67-114 67-67 0-121-37-140-96l-21 0c0 0 0 0 0 0-4 0-6-3-6-6l0-21c0-3 2-6 6-6 0 0 0 0 0 0l15 0c-1-4-1-8-1-13 0-4 0-8 1-12l-15 0 0 0c-4 0-6-3-6-6l0-21c0-3 2-6 6-6 0 0 0 0 0 1l21 0c18-60 73-98 140-98 60 0 95 33 114 67 0 0 0 0 1 0 0 0 0 0 0 0 0 0 0 0 0 0l0 0c1 3 0 6-3 8z"/>
<glyph unicode="&#57383;" d="M403 123l-15 8c-1 0-3 0-3-1l-6-12c-1 0-1-1-1-1 1-1 1-1 2-2l15-8c0 0 0 0 1 0 1 0 1 0 2 1l6 12c0 0 0 1 0 1 0 1-1 1-1 2z m0 269l-15 9c-1 0-2 0-3-1l-7-11c0-1 0-1 0-2 0 0 1-1 1-1l15-9c1 0 1-1 2-1 0 0 1 1 2 2l6 11c0 0 0 1 0 1 0 1 0 1-1 2z m-30-253l-17 9 0 252 8-5c0-1 1-1 1-1 1 0 2 1 2 1l7 12c0 0 0 1 0 1 0 1-1 1-1 2l-7 3-7 5c-3 2-6 1-9-1l-62-34-62 34c0 0 0 0 0 0 0 0 0 1-1 1 0 0-1 0-2 0 0 0-1 0-2 0-1 0-1 0-2 0-1 0-1 0-2 0 0 0 0-1 0-1 0 0 0 0-1 0l-62-34-62 34c-3 2-7 2-9 1-3-2-5-4-5-7l0-274c0-3 2-5 4-6l67-37c0 0 0 0 0 0 1 0 1 0 1 0 1-1 3-1 4-1 2 0 3 0 4 1 0 0 1 0 1 0 0 0 0 0 0 0l62 34 63-34c0 0 0 0 0 0 0 0 0 0 0 0 1-1 3-1 4-1 2 0 3 0 5 1 0 0 0 0 0 0 0 0 0 0 0 0l62 34 5-2 4-3c1 0 1 0 1 0 1 0 2 1 2 1l7 12c0 1 0 2-1 3z m-219-29l-58 31 0 256 58-31z m134 0l-67 36 0 256 67-36z m144 114l-13 0c-1 0-2-1-2-3l0-27c0-1 1-2 2-2l13 0c1 0 2 1 2 2l0 27c0 2-1 3-2 3z m0-108l-13 0c-1 0-1 0-1 0l-2-1c-1-1-1-1-1-1l-6-12c0 0-1-1 0-1 0-1 0-1 1-2l8-4c2-1 4-2 6-2 5 0 10 3 10 11l0 10c0 1-1 2-2 2z m-5 262l-8 5c-2 0-3 0-4-1l-6-11c0-1-1-1 0-2 0 0 0-1 1-1l7-4 0-8c0-1 1-2 2-2l13 0c1 0 2 1 2 2l0 10c0 8-6 11-7 12z m5-47l-13 0c-1 0-2-1-2-2l0-27c0-1 1-2 2-2l13 0c1 0 2 1 2 2l0 27c0 1-1 2-2 2z m0-161l-13 0c-1 0-2-1-2-2l0-27c0-2 1-3 2-3l13 0c1 0 2 1 2 3l0 27c0 1-1 2-2 2z m0 107l-13 0c-1 0-2-1-2-2l0-27c0-1 1-2 2-2l13 0c1 0 2 1 2 2l0 27c0 1-1 2-2 2z"/>
<glyph unicode="&#57384;" d="M236 204l-73 0c-4 0-7-4-7-8l0-112c0-4 3-8 7-8l73 0c4 0 8 4 8 8l0 112c0 5-4 8-8 8z m113 232l-73 0c-4 0-8-4-8-8l0-344c0-4 4-8 8-8l73 0c4 0 7 4 7 8l0 344c0 4-3 8-7 8z m113-105l-72 0c-5 0-8-3-8-7l0-240c0-4 3-8 8-8l72 0c4 0 8 4 8 8l0 240c0 4-4 7-8 7z m-340 0l-72 0c-4 0-8-3-8-7l0-240c0-4 4-8 8-8l72 0c5 0 8 4 8 8l0 240c0 4-3 7-8 7z"/>
<glyph unicode="&#57385;" d="M442 302l-372 0c-4 0-8-3-8-8l0-77c0-4 4-8 8-8l372 0c4 0 8 4 8 8l0 77c0 5-4 8-8 8z m-154 119l0 0-218 0c-4 0-8-4-8-8l0-77c0-5 4-8 8-8l218 0 0 0c3 1 6 4 6 8l0 77c0 4-3 7-6 8z m49-237l-267 0c-4 0-8-3-8-8l0-77c0-4 4-8 8-8l267 0c5 0 8 4 8 8l0 77c0 5-3 8-8 8z"/>
<glyph unicode="&#57386;" d="M277 446c-3 0-6-3-6-7 0 0 0 0 0-1l0 0 0-161c0-3 3-6 6-6l161 0 0 0c1 0 1 0 1 0 4 0 7 3 7 6-1 93-76 168-169 169z m130-208c0 4-3 7-7 7l-148 0c-4 0-7 3-7 7l0 147 0 0c0 1 0 1 0 1 0 4-3 7-6 7-1 0-1 0-1 0l0 0c0 0-1 0-2 0-94 0-170-76-170-171 0-94 76-170 170-170 95 0 171 76 171 170 0 1 0 2 0 2 0 0 0 0 0 0z"/>
<glyph unicode="&#57387;" d="M416 434l-320 0c-10 0-17-7-17-17l0-16c0-10 7-17 17-17l320 0c10 0 17 7 17 17l0 16c0 10-7 17-17 17z m0-306l-320 0c-10 0-17-7-17-17l0-16c0-10 7-17 17-17l320 0c10 0 17 7 17 17l0 16c0 10-7 17-17 17z m17 85c0 10-7 17-17 17l-199 0c-9 0-17-7-17-17l0-16c0-10 8-17 17-17l199 0c10 0 17 7 17 17z m0 101c0 10-7 18-17 18l-199 0c-9 0-17-8-17-18l0-16c0-9 8-17 17-17l199 0c10 0 17 8 17 17 0 0 0 0 0 0z m-354-58c0-1 0-2 1-3l0 0 64-36c0-1 1-1 2-1 1 0 3 1 3 3l0 0 0 74c0 2-2 3-3 3-1 0-2 0-2-1l-64-36 0-1c-1 0-1-1-1-2z"/>
<glyph unicode="&#57388;" d="M416 434l-320 0c-10 0-17-7-17-17l0-16c0-10 7-17 17-17l320 0c10 0 17 7 17 17l0 16c0 10-7 17-17 17z m0-306l-320 0c-10 0-17-7-17-17l0-16c0-10 7-17 17-17l320 0c10 0 17 7 17 17l0 16c0 10-7 17-17 17z m17 85c0 10-7 17-17 17l-199 0c-9 0-17-7-17-17l0-16c0-10 8-17 17-17l199 0c10 0 17 7 17 17z m0 101c0 10-7 18-17 18l-199 0c-9 0-17-8-17-18l0-16c0-9 8-17 17-17l199 0c10 0 17 8 17 17 0 0 0 0 0 0z m-351-98c0 0 1 0 2 1l63 36 0 1c1 0 2 1 2 2 0 1-1 2-2 3l0 0-63 36c-1 1-2 1-2 1-2 0-3-1-3-3l0 0 0-74c0-2 1-3 3-3z"/>
<glyph unicode="&#57389;" d="M411 415l0 0 0 0c3 3 3 8 0 11l-10 10c-3 3-8 3-11 0l0 0-45-45c-3-3-3-7 0-10l11-11 0 0c2-3 7-3 10 0z m-162-2l0 0 14 0 0 0c4 0 8 3 8 7l0 0 0 64c0 5-3 8-8 8l0 0-14 0 0 0c-5 0-8-3-8-8l0-64 0 0c0-4 4-7 8-7z m220-106c0 4-3 7-7 8l0 0-64 0c-4 0-8-4-8-8l0-15c0-4 4-7 8-7l64 0 0 0c4 0 7 3 7 7z m-213 81c-60 0-109-49-109-109 0-23 8-45 20-63l0 0c17-25 27-59 27-96 2-2 4-4 7-4 0 0 0 0 1 0l0 0 108 0 0 0c0 0 1 0 1 0 3 0 5 2 7 5 0 38 12 73 29 99 11 17 18 37 18 59 0 60-49 109-109 109z m55-336c0 0-1 0-1 0l0 0-108 0 0 0c-1 0-1 0-1 0-4 0-8-3-8-7l0-17c0-5 4-8 8-8 0 0 0 0 1 0l0 0 108 0 0 0c0 0 1 0 1 0 4 0 7 3 7 8l0 17c0 4-3 7-7 7z m0 49c0 0-1 0-1 0l0 0-108 0 0 0c-1 0-1 0-1 0-4 0-7-4-8-8 0 0 0 0 0 0l0-17c0-4 4-8 8-8 0 0 0 0 1 1l0-1 108 0 0 1c0-1 1-1 1-1 4 0 7 4 7 8l0 17c0 4-3 8-7 8z m-197 208l0 0-64 0c-4 0-7-3-7-8l0-14c0-5 3-8 7-8l64 0 0 0c4 0 8 4 8 8l0 14c0 4-4 8-8 8z m-11 109l46-46 0 0c3-2 7-2 10 1l0 0 11 10c2 3 2 8 0 10l0 0-46 46c-2 3-7 3-10 0l-11-11c-2-3-2-7 0-10z"/>
<glyph unicode="&#57390;" d="M454 409l-320 0c-9 0-17-8-17-18l0-16c0-9 8-17 17-17l320 0c10 0 18 8 18 17l0 16c0 10-8 18-18 18z m0-128l-320 0c-9 0-17-7-17-17l0-16c0-10 8-17 17-17l320 0c10 0 18 7 18 17l0 16c0 10-8 17-18 17z m0-127l-320 0c-9 0-17-8-17-17l0-16c0-10 8-18 17-18l320 0c10 0 18 8 18 18l0 16c0 9-8 17-18 17z m-363 229c0-14-11-25-25-25-14 0-26 11-26 25 0 15 12 26 26 26 14 0 25-11 25-26z m0-122c0-14-11-25-25-25-14 0-26 11-26 25 0 14 12 26 26 26 14 0 25-12 25-26z m0-132c0-15-11-26-25-26-14 0-26 11-26 26 0 14 12 25 26 25 14 0 25-11 25-25z"/>
<glyph unicode="&#57391;" d="M74 397l0-40 12 0 0 55-11 0-17-17 7-7z m-8-123c4 0 9-2 9-7 0-7-7-12-29-29l0-9 41 0 0 10-23 0c15 11 22 19 22 28 0 11-9 18-21 18-7 0-15-3-21-9l7-8c4 4 8 6 15 6z m9-145c6 1 12 6 12 13 0 9-8 15-21 15-10 0-16-4-21-9l6-7c4 3 9 5 14 5 6 0 10-2 10-6 0-4-4-6-10-6-2 0-6 0-7 0l0-10c1 0 5 0 7 0 8 0 11-2 11-7 0-4-4-7-10-7-6 0-12 3-15 7l-7-8c4-5 12-9 22-9 13 0 22 7 22 16 0 8-8 13-13 13z m375 281l-320 0c-9 0-17-8-17-17l0-16c0-10 8-18 17-18l320 0c10 0 18 8 18 18l0 16c0 9-8 17-18 17z m0-127l-320 0c-9 0-17-8-17-18l0-16c0-9 8-17 17-17l320 0c10 0 18 8 18 17l0 16c0 10-8 18-18 18z m0-128l-320 0c-9 0-17-8-17-17l0-16c0-10 8-18 17-18l320 0c10 0 18 8 18 18l0 16c0 9-8 17-18 17z"/>
<glyph unicode="&#57392;" d="M411 167l-182 0 0 0c0 0 0 0 0 0-6 0-11-6-11-12 0 0 0 0 0-1l0-53 0 0c0-6 5-11 11-11l0 0 182 0 0 0c6 0 11 5 11 11l0 53c0 1 0 1 0 1 0 6-5 12-11 12z m-256 0l-54 0c-6 0-11-6-11-12l0-54c0-6 5-11 11-11l54 0c6 0 12 5 12 11l0 54c0 6-6 12-12 12z m256 128l-182 0 0 0c0 0 0 0 0 0-6 0-11-6-11-12 0 0 0 0 0-1l0-53 0 0c0-6 5-11 11-11l0 0 182 0 0 0c6 0 11 5 11 11l0 53c0 1 0 1 0 1 0 6-5 12-11 12z m-256 0l-54 0c-6 0-11-6-11-12l0-54c0-6 5-11 11-11l54 0c6 0 12 5 12 11l0 54c0 6-6 12-12 12z m63 62l0 0c0-6 5-12 11-12l0 0 182 0 0 0c6 0 11 6 11 12l0 53c0 0 0 0 0 1 0 6-5 11-11 11l0 0-182 0 0 0c0 0 0 0 0 0-6 0-11-5-11-11 0-1 0-1 0-1l0-53z m-63 65l-54 0c-6 0-11-5-11-11l0-54c0-6 5-12 11-12l54 0c6 0 12 6 12 12l0 54c0 6-6 11-12 11z"/>
<glyph unicode="&#57393;" d="M291 459c-91 0-164-74-164-164 0-31 8-60 23-85l-79-79 0 0c-8-8-14-20-14-33 0-25 21-45 46-45 12 0 24 5 32 14l0-1 82 82c22-11 47-17 74-17 90 0 164 73 164 164 0 90-74 164-164 164z m1-263c-57 0-103 45-103 102 0 56 46 102 103 102 56 0 102-46 102-102 0-57-46-102-102-102z"/>
<glyph unicode="&#57394;" d="M256 459c-80 0-144-65-144-145 0-32 10-62 28-86l93-161c0-1 1-2 2-3l0 0 0 0c5-6 12-11 21-11 8 0 15 4 20 10l0-1 1 2c1 2 2 4 3 6l91 157c18 24 29 55 29 87 0 80-64 145-144 145z m-1-218c-40 0-72 32-72 71 0 40 32 71 72 71 39 0 71-31 71-71 0-39-32-71-71-71z"/>
<glyph unicode="&#57395;" d="M140 366c-42 0-77-34-77-76 0-43 35-77 77-77 7 0 13 5 14 12l0 0 0 127c0 8-6 14-14 14z m309 62c0 8-7 14-14 14-4 0-6-1-9-3l-122-70-111 0c-7 0-14-6-14-14l0-132 1 0c0-7 6-13 13-13l98 0 134-77c3-2 6-4 10-4 7 0 14 7 14 14 0 1-1 1-1 2l1 0 0 283 0 0c0 0 0 0 0 0z m-161-323l0 0c0 0 0 0-1 0 0 0 0 1 0 1l-42 73 0 0c-3 3-6 5-10 6l0 0-37 0 0 0c-2 0-4-1-6-2-6-4-9-12-5-19 0-1 1-1 1-1l0-1 50-85c0 0 0 0 0 0 0 0 0 0 0 0l0-1 0 0c4-6 12-8 19-5 0 1 1 1 2 2l0 0 25 14 0 1c5 4 7 11 4 17z"/>
<glyph unicode="&#57396;" d="M386 260l0 0 0 1c0 0 0 0 0 0l0 73c0 11-8 19-19 19-11 0-19-8-19-19l0-73c0-51-41-92-92-92-51 0-92 41-92 92l0 73c0 11-8 19-19 19-11 0-19-8-19-19l0-74 0 0c0-65 48-119 111-128l0-28-69 0 0 0c-10 0-19-9-19-19 0-11 9-19 19-20l0 0 176 0c10 0 19 9 19 20 0 10-9 19-19 19l-69 0 0 28c63 9 111 63 111 128z m-196 1c0-36 30-65 66-65 36 0 66 29 66 65 0 1 0 1 0 2l0 0 0 119 0 0c-1 36-30 65-66 65-36 0-65-29-66-65l0 0 0-119 0 0c0-1 0-1 0-2z"/>
<glyph unicode="&#57397;" d="M343 110l-33 0c-5 0-9-4-9-9l0 0 0-15-208 0 0 241 91 0c5 0 9 4 9 9l0 90 108 0 0-63 0 0c0-4 4-8 9-8l33 0c5 0 9 4 9 8l0 0 0 1c0 0 0 0 0 0 0 0 0 0 0 0l0 84 0 0 0 21c0 4-4 8-9 8l-168 0-133-132 0-302c0-4 4-8 9-8l292 0c5 0 9 4 9 8l0 13 0 0 0 45c0 5-4 9-9 9z m124 202l-59 60c-4 3-9 3-13 0l-163-163 1-1-1 1-22-84 0 0c-1-3 0-6 2-9 3-2 7-3 10-1l0 0 82 22 0 0 0 0 163 163c4 3 4 9 0 12z m-230-170l13 49 36-36z"/>
<glyph unicode="&#57398;" d="M457 448l0 0 0 21c0 4-4 8-9 8l-168 0-133-132 0-27 0 0c1-5 4-8 9-8l33 0c5 0 9 3 9 8l0 0 0 9 91 0c5 0 9 4 9 9l0 90 108 0 0-340-208 0 0 15 0 0c0 5-4 9-9 9l-33 0c-5 0-9-4-9-9l0-58c0-4 4-8 9-8l292 0c5 0 9 4 9 8l0 13 0 0z m-203-238c0 45-37 82-82 82-45 0-82-37-82-82 0-16 4-30 11-42l-40-40 1 0c-5-4-7-10-7-17 0-12 10-22 22-22 7 0 13 2 17 7l0 0 41 41c11-6 24-9 37-9 45 0 82 36 82 82z m-130 0c0 26 22 47 48 47 26 0 48-21 48-47 0-27-22-48-48-48-26 0-48 21-48 48z"/>
<glyph unicode="&#57399;" d="M155 59c-14 0-32 5-50 23-24 24-27 47-25 62 2 17 11 34 27 50l150 151c43 42 71 26 83 13 16-15 26-42-14-82l-138-139-27 27 138 139c22 21 17 26 14 28-1 2-7 8-29-13l-150-151c-7-7-15-17-16-28-1-9 4-19 14-30 13-13 23-12 26-11 9 1 19 7 30 18 13 12 167 166 178 178 15 15 24 29 28 42 5 20-1 38-20 57-19 19-51 40-98-8l-165-165c-8-7-20-7-27 0-8 8-8 20 0 27l165 165c51 51 106 54 152 8 36-36 36-71 30-94-6-20-18-39-38-59-11-12-166-166-178-178-17-17-34-26-51-29-3 0-6-1-9-1z"/>
<glyph unicode="&#57400;" d="M455 362l-93 93c-5 5-14 5-20 0l-253-254 1 0-1 0-35-130 0 0c-2-4 0-10 3-14 5-4 11-5 16-2l0 0 128 34 0 0 0 0 254 254c5 5 5 14 0 19z m-359-265l21 76 56-56z"/>
<glyph unicode="&#57401;" d="M64 416l0-64 384 0 0 64z m0-192l384 0 0 64-384 0z m0-128l384 0 0 64-384 0z"/>
<glyph unicode="&#57402;" d="M432 309l-123 0 0 123c0 5-5 10-10 10l-86 0c-5 0-10-5-10-10l0-123-123 0c-5 0-10-5-10-10l0-86c0-3 1-5 3-7 2-2 4-3 7-3l123 0 0-123c0-3 1-5 3-7 2-2 4-3 7-3l86 0c3 0 5 1 7 3 2 2 3 4 3 7l0 123 123 0c3 0 5 1 7 3 2 2 3 4 3 7l0 86c0 5-5 10-10 10z"/>
<glyph unicode="&#57403;" d="M392 396l0 0c-2 2-5 3-8 3-3 0-5-1-7-3l0 0-1 0c0 0 0 0 0 0l-21-19c0 0 0 0 0-1l0 0 0 0c-2-2-3-4-3-7 0-4 2-8 5-10 25-25 40-60 40-98 0-78-63-141-141-141-78 0-141 63-141 141 0 38 16 73 41 99l0 0c2 2 4 5 4 9 0 3-2 5-4 7l0 0 0 0c0 1 0 1 0 1l-21 19c0 0 0 0 0 0l-1 0 0 0c-2 2-4 3-7 3-4 0-8-2-10-6-33-34-53-81-53-132 0-106 86-192 192-192 106 0 192 86 192 192 0 52-21 100-56 135z m-150-205l28 0c0 0 0 0 0 0 6 0 11 5 11 11l0 230 0 0c0 0 0 0 0 0 0 6-5 11-11 11 0 0 0 0 0 0l-28 0c-6 0-11-5-11-11 0 0 0 0 0 0l0 0 0-230c0-6 5-11 11-11z"/>
<glyph unicode="&#57404;" d="M367 139c0 1-1 2-1 3l0 0-15 37c0 0 0 0 0 0l-1 0 0 0c0 2-2 4-5 4-2 0-3-1-4-2l0 0c-6-7-18-15-36-15-20 0-29 14-53 14-6 0-14-1-20-4 14 10 26 27 26 46 0 3 0 6 0 8l46 0 0 0c3 0 6 3 6 6l0 22 0 0c0 3-3 5-6 5l0 0-59 0c-10 15-20 28-20 49 0 23 19 38 43 38 19 0 35-12 42-29 1-2 3-3 5-3 1 0 2 0 3 0 0 0 0 0 0 0l36 22 0 0c2 1 3 3 3 5 0 1 0 2-1 3l0 0c-17 34-49 50-95 50-49 0-100-33-100-85 0-20 8-36 19-50l-28 0 0 0c0 0-1 0-1 0-3 0-6-2-6-6l0-22 1 0c0-3 2-5 5-5 0 0 1 0 1 0l0 0 49 0c3-7 5-14 5-22 0-21-19-39-44-51 0 0 0 0 0 0 0 0-1-1-1-1l0 0c-2-1-3-3-3-5 0-1 0-1 1-2l0 0 0 0c0 0 0 0 0 0l14-30c0 0 0 0 0 0l0 0 0 0c1-2 3-3 5-3 1 0 2 0 3 0l0 0c16 9 33 16 48 16 25 0 38-18 74-18 30 0 50 9 61 20l0 0c2 2 3 3 3 5z"/>
<glyph unicode="&#57405;" d="M463 332c0 5-4 9-9 9l-67 0 0 110c0 5-5 10-10 10l-242 0c-5 0-10-5-10-10l0-110-67 0c0 0 0 0 0 0-5 0-9-4-9-9l0 0 0-188c0-5 4-10 9-10l67 0 0 79 262 0 0-79 67 0c5 0 9 5 9 10l0 188z m-102-33l-210 0 0 127c0 5 4 9 9 9l192 0c5 0 9-4 9-9l0-127z m-209-238c0-5 4-10 9-10l190 0c5 0 9 5 9 10l0 126-208 0z"/>
<glyph unicode="&#57406;" d="M90 288c-4 0-8 0-10-1 4 18 22 39 38 48 0 0 0 0 0 0 0 0 0 0 1 0l0 0c1 1 3 3 3 5 0 2-1 4-3 5l0 0-21 13 0 0c-1 1-2 2-4 2-1 0-2-1-2-1l0 0c-33-23-54-57-54-96 0-34 22-53 46-53 22 0 41 19 41 41 0 22-15 37-35 37z m105 0c-4 0-8 0-10-1 4 18 22 39 38 48 0 0 0 0 0 0 1 0 1 0 1 0l0 0c2 1 3 3 3 5 0 2-1 4-3 5l0 0-21 13 0 0c-1 1-2 2-4 2-1 0-1-1-2-1l0 0c-32-23-54-57-54-96 0-34 22-53 46-53 23 0 41 19 41 41 0 22-15 37-35 37z m128 14c-23 0-41-19-41-41 0-22 15-37 35-37 4 0 8 0 10 1-4-18-22-39-38-48 0 0 0 0 0 0-1 0-1 0-1 0l0 0c-2-1-3-3-3-5 0-2 1-4 3-5l0 0 21-13 0 0c1-1 2-2 4-2 1 0 1 1 2 1l0 0c32 23 54 57 54 96 0 34-22 53-46 53z m105 0c-22 0-41-19-41-41 0-22 15-37 35-37 4 0 8 0 10 1-4-18-22-39-38-48 0 0 0 0 0 0 0 0 0 0-1 0l0 0c-1-1-3-3-3-5 0-2 1-4 3-5l0 0 21-13 0 0c1-1 2-2 4-2 1 0 2 1 2 1l0 0c33 23 54 57 54 96 0 34-22 53-46 53z"/>
<glyph unicode="&#57407;" d="M375 316c-8 0-15-1-22-4l-156 90c0 2 0 3 0 4 0 34-27 61-60 61-33 0-60-27-60-61 0-33 27-60 60-60 13 0 25 4 35 12l145-84c-1-6-2-12-2-18 0-6 1-12 2-18l-144-84c-10 7-23 12-36 12-33 0-60-27-60-60 0-34 27-61 60-61 33 0 60 27 60 61 0 1 0 2 0 3l157 91c6-3 13-4 21-4 33 0 60 27 60 60 0 33-27 60-60 60z"/>
<glyph unicode="&#57408;" d="M199 97c0-16-14-30-30-30-17 0-30 14-30 30 0 17 13 30 30 30 16 0 30-13 30-30z m212 0c0-16-14-30-31-30-16 0-30 14-30 30 0 17 14 30 30 30 17 0 31-13 31-30z m-35 132c7 0 13 4 16 10l0 0 75 130 0 0c1 2 2 5 2 7 0 10-8 18-18 18l-274 0 0 33c0 10-8 18-18 18l-97 0 0 0c0 0-1 0-1 0-9 0-16-7-17-16l-1 0 0-17c0-10 8-18 18-18 0 0 1 0 1 0l0 0 64 0 0-224 0 0c0-10 8-17 17-17 0 0 0 0 0 0l304 0 0 0c8 1 15 7 16 15l0 0 0 2c0 0 0 1 0 1 0 0 0 0 0 0l0 15c0 0 0 0 0 0 0 9-7 17-16 18l0 0-270 0 0 25 199 0z"/>
<glyph unicode="&#57410;" d="M129 248c9-7 19-11 31-11 14 1 27 6 36 16 5 7 8 14 9 22 1 7 2 13 2 18 0 22-6 44-17 67-5 10-12 19-21 26-9 6-19 9-30 10-15-1-28-7-38-18-8-13-12-26-12-42 0-20 6-41 18-62 6-10 13-19 22-26z m34-84c-4 5-8 10-11 16-4 6-5 13-5 21 0 5 0 9 2 13 1 3 2 6 3 9-6 0-12-1-18-1-26 0-47 8-62 23l0-99c13 6 27 10 42 13 19 3 36 4 49 5z m15-16c-4 0-8 0-13 0-2 1-10 0-21-1-12-1-24-4-36-7-2-2-6-3-12-5-5-3-10-6-15-10-4-3-7-7-9-11l0-15c0-14 11-26 25-26l140 0c0 1 0 1 0 1 0 15-4 27-14 37-9 10-24 22-45 37z m237 291l-318 0c-14 0-25-12-25-26l0-35c1 2 3 4 5 6 16 13 32 21 49 25 17 3 33 5 47 5l111 0-34-20-34 0c3-2 7-5 12-9 4-5 8-10 12-16 4-6 7-13 10-21 3-9 4-18 4-29-1-20-5-36-13-48-5-5-9-11-14-16-5-4-10-9-16-14-3-4-6-8-9-12-3-5-5-10-5-16 0-6 2-10 5-14 3-4 6-7 8-10l19-15c12-10 22-20 31-32 8-12 13-27 13-46 0-8-1-15-3-23l145 0c14 0 25 12 25 26l0 314c0 14-11 26-25 26z m20-114l-58 0 0-58-29 0 0 58-58 0 0 29 58 0 0 58 29 0 0-58 58 0z"/>
<glyph unicode="&#57409;" d="M420 440l-328 0c-11 0-20-9-20-20l0-328c0-11 9-20 20-20l177 0 0 142-48 0 0 56 48 0 0 41c0 48 29 74 71 74 20 0 38-2 43-3l0-49-29 0c-23 0-28-11-28-27l0-36 55 0-7-56-48 0 0-142 94 0c11 0 20 9 20 20l0 328c0 11-9 20-20 20z"/>
<glyph unicode="&#57411;" d="M310 419l18 32c1 1 0 3-2 4-1 1-4 1-4-1l-18-32c-14 7-31 10-48 10-17 0-34-3-48-10l-18 32c-1 2-3 2-4 1-2-1-3-3-2-4l18-32c-34-17-57-50-57-89l222 0c0 39-23 72-57 89z m-105-48c-5 0-9 4-9 9 0 5 4 9 9 9 6 0 10-4 10-9 0-5-4-9-10-9z m102 0c-6 0-10 4-10 9 0 5 4 9 10 9 5 0 9-4 9-9 0-5-4-9-9-9z m118-69c0 14-11 25-25 25-13 0-24-12-24-25l0-103c0-14 11-25 24-25 14 0 25 11 25 25z m-59 20l-220 0 0-160c0-4 1-8 3-12 4-8 13-14 23-14l18 0 0-55c0-2 0-3 1-5 2-11 12-20 24-20 1 0 3 0 5 1 11 2 19 12 19 24l0 55 34 0 0-55c0-12 8-22 19-24 2 0 4-1 5-1 14 0 25 11 25 25l0 55 18 0c5 0 9 1 13 3 8 5 13 13 13 23z m-254 5c-14 0-25-12-25-25l0-103c0-9 4-17 11-21 4-3 9-4 14-4 12 0 22 8 24 20 0 1 0 3 0 5l0 103c0 13-11 25-24 25z"/>
<glyph unicode="&#57412;" d="M420 323c-21 27-51 42-79 42-37 0-52-18-78-18-26 0-46 18-78 18-32 0-65-19-87-52-29-46-24-132 24-206 17-26 40-56 71-56 26 0 34 17 70 18 37 0 44-18 71-18 30 1 54 33 71 60 13 18 17 28 27 49-70 27-81 125-12 163z m-107 71c14 18 24 42 20 67-22-2-47-16-62-34-14-16-25-41-21-65 24 0 49 14 63 32z"/>
<glyph unicode="&#57413;" d="M413 440l-314 0c-15 0-27-12-27-26l0-316c0-14 12-26 27-26l314 0c15 0 27 12 27 26l0 316c0 14-12 26-27 26z m-232-314l-55 0 0 176 55 0z m-27 200c-18 0-32 14-32 32 0 17 14 32 32 32 17 0 31-15 31-32 0-18-14-32-31-32z m232-200l-55 0 0 86c0 20 0 46-28 46-29 0-33-22-33-45l0-87-55 0 0 176 53 0 0-24 1 0c7 14 25 28 51 28 56 0 66-36 66-83l0-97z"/>
<glyph unicode="&#57414;" d="M404 251c40 0 72 32 72 72 0 39-32 72-72 72-40 0-73-33-73-72 0-40 33-72 73-72z m-98 51c0 36-29 65-65 65-36 0-65-29-65-65 0-36 29-65 65-65 36 0 65 29 65 65z m-213-77c33 0 59 26 59 59 0 32-26 58-59 58-32 0-58-26-58-58 0-33 26-59 58-59z m0-13c-37 0-64-33-64-66l0-23c0-3 3-6 6-6l117 0c3 0 6 3 6 6l0 23c0 33-28 66-65 66z m148 11c-41 0-72-37-72-74l0-25c0-4 3-7 7-7l130 0c3 0 6 3 6 7l0 25c0 37-30 74-71 74z m163 11c-46 0-80-40-80-82l0-27c0-4 3-8 7-8l145 0c4 0 7 4 7 8l0 27c0 42-34 82-79 82z"/>
<glyph unicode="&#57415;" d="M442 214c3 13 4 26 4 40 0 104-84 188-188 188-11 0-22-1-32-3-17 11-37 17-58 17-60 0-109-49-109-109 0-20 5-39 15-55-3-13-4-25-4-38 0-104 84-188 188-188 12 0 23 1 35 3 15-8 32-13 51-13 60 0 109 49 109 109 0 18-4 34-11 49z m-87-50c-9-12-22-22-39-29-16-7-36-10-58-10-27 0-50 4-68 14-12 7-23 16-31 27-8 12-12 23-12 34 0 7 3 13 8 18 5 5 12 7 20 7 6 0 12-2 16-5 5-4 8-10 11-17 4-7 7-14 11-19 4-5 9-9 16-12 7-3 16-5 27-5 16 0 28 4 38 10 9 7 14 14 14 24 0 7-2 13-7 17-5 5-12 9-20 12-9 2-21 5-35 8-19 4-36 9-49 15-14 6-24 13-32 23-8 11-13 23-13 38 0 14 5 27 13 38 9 11 21 20 37 26 15 5 34 8 55 8 17 0 31-2 44-6 12-3 23-9 31-15 8-7 14-13 18-21 4-7 6-14 6-21 0-7-3-13-8-18-5-6-11-8-19-8-7 0-13 1-16 5-4 3-7 8-12 15-4 9-10 16-16 21-7 4-17 7-32 7-13 0-24-3-32-8-8-5-12-11-12-18 0-5 1-8 4-11 2-3 6-6 11-9 5-2 10-4 15-6 5-1 14-3 26-6 15-3 29-7 42-11 12-4 23-9 32-15 9-5 16-13 21-22 5-9 8-20 8-33 0-15-5-30-13-42z"/>
<glyph unicode="&#57416;" d="M257 336c-46 0-83-37-83-82 0-46 37-82 83-82 45 0 82 36 82 82 0 45-37 82-82 82z m147 104l-296 0c-20 0-36-16-36-36l0-296c0-20 16-36 36-36l296 0c20 0 36 16 36 36l0 296c0 20-16 36-36 36z m-147-311c-69 0-125 56-125 125 0 69 56 124 125 124 68 0 124-55 124-124 0-69-56-125-124-125z"/>
<glyph unicode="&#57417;" d="M404 440l-296 0c-20 0-36-16-36-36l0-296c0-20 16-36 36-36l296 0c20 0 36 16 36 36l0 296c0 20-16 36-36 36z m-62-308c-12-5-23-9-33-12-9-2-20-3-31-3-13 0-24 2-34 5-9 3-18 8-25 14-6 6-11 12-14 19-3 6-4 16-4 29l0 97-31 0 0 39c11 4 21 9 28 16 8 6 14 14 19 23 5 10 8 22 10 36l39 0 0-70 66 0 0-44-66 0 0-71c0-16 1-27 3-31 2-5 5-8 10-11 6-4 13-6 21-6 14 0 28 5 42 14l0-44z"/>
<glyph unicode="&#57418;" d="M453 378c-14-6-30-11-46-12 16 10 29 25 35 44-15-9-33-16-51-19-15 15-36 25-59 25-45 0-81-36-81-81 0-6 1-12 2-18-67 3-127 35-167 84-7-12-11-25-11-40 0-28 15-53 36-68-13 1-25 4-36 11 0-1 0-1 0-2 0-39 28-71 65-79-7-2-14-3-22-3-5 0-10 1-15 2 10-32 40-56 76-56-28-22-63-35-101-35-6 0-13 0-19 1 36-23 78-36 124-36 149 0 230 123 230 230 0 3 0 7 0 10 16 12 29 26 40 42z"/>
<glyph unicode="&#57419;" d="M440 267l0 178-205-29 0-149z m-219 146l-149-21 0-125 149 0z m-149-166l0-126 149-22 0 148z m163-150l205-30 0 180-205 0z"/>
<glyph unicode="&#57420;" d="M460 114l-53 6 6 46 53-6z m52 278l-90 11 1-207 39-6z m-180-36c-36 27-83 41-139 41-57 0-104-14-139-41-36-27-54-61-54-103 0-43 18-78 54-105 29-22 66-35 111-39l56 0c44 4 81 17 111 39 35 27 53 62 53 105 0 42-18 76-53 103z m-27-68l-27-6c-4-1-15-9-34-25-21-16-31-27-33-32l-1-14-1-9 3-22 36-1-1-11-59 0-52 0 2 10 17 1c8 0 14 1 15 3 1 1 2 8 2 21l0 7-1 15c-1 4-10 16-28 39-19 22-31 36-37 40l-33 5 0 10c1 1 20 1 54 0 24 1 44 1 60 0l-2-8-35-4c11-16 28-39 51-67 29 22 45 37 45 43l-30 5-2 10 50 0 48 0z"/>
<glyph unicode="&#57421;" d="M231 152c-3-5-7-8-10-8-2 0-3 1-4 4 0 0 0 2 0 6l0 65-16 0 0-70c0-6 1-10 2-13 1-4 5-7 10-7 6 0 12 4 18 11l0-9 16 0 0 88-16 0z m-88 81l19 0 0-102 18 0 0 102 19 0 0 17-56 0z m109 78c6 0 8 4 8 12l0 38c0 8-2 12-8 12-5 0-7-4-7-12l0-38c0-8 2-12 7-12z m42-91c-6 0-11-3-17-9l0 39-16 0 0-119 16 0 0 8c6-6 11-10 17-10 6 0 11 4 13 10 1 4 2 10 2 18l0 36c0 8-1 14-2 17-2 7-7 10-13 10z m-2-64c0-8-2-12-7-12-2 0-5 1-8 4l0 54c3 3 6 4 8 4 5 0 7-4 7-12z m53 64c-8 0-14-3-19-9-3-4-5-11-5-21l0-31c0-9 2-16 5-20 5-7 11-10 20-10 8 0 15 4 19 10 2 3 3 6 4 10 0 1 0 5 0 10l0 2-16 0c0-6 0-10-1-10 0-5-3-7-7-7-5 0-8 4-8 12l0 16 32 0 0 19c0 9-1 16-5 20-4 6-11 9-19 9z m8-34l-16 0 0 8c0 8 3 12 8 12 5 0 8-4 8-12z m51 254l-296 0c-20 0-36-16-36-36l0-296c0-20 16-36 36-36l296 0c20 0 36 16 36 36l0 296c0 20-16 36-36 36z m-114-53l16 0 0-66c0-4 0-6 0-7 0-2 2-3 4-3 3 0 7 2 10 7l0 69 16 0 0-90-16 0 0 10c-6-8-12-11-18-11-6 0-9 2-11 6-1 3-1 7-1 14z m-62-30c0 10 2 17 5 22 5 6 11 9 19 9 8 0 15-3 19-9 4-5 5-12 5-22l0-31c0-9-1-17-5-21-4-6-11-9-19-9-8 0-14 3-19 9-3 4-5 12-5 21z m-43 60l13-47 12 47 18 0-22-71 0-49-18 0 0 49c-1 8-5 21-11 38-3 11-7 22-11 33z m199-292c-3-14-14-24-28-26-33-3-67-3-100-3-33 0-67 0-100 3-14 2-25 12-28 26-5 20-5 42-5 63 0 21 0 43 5 63 3 14 15 25 28 26 33 4 67 4 100 4 33 0 67 0 100-4 14-1 25-12 28-26 5-20 5-42 5-63 0-21 0-43-5-63z"/>
<glyph unicode="&#57422;" d="M234 278c-12-12-12-32 0-44 12-12 32-12 44 0 12 12 12 32 0 44-12 12-32 12-44 0z m158-171c82 82 82 216-1 298 0 0 0 0 0 0l0 0-9 9 0 0c-5 4-11 3-16-1l0 0 0 0c0 0 0 0 0 0 0 0 0 0 0 0l-14-14c0 0 0 0 0 0 0 0 0 0 0 0l-1-1 0 0c-4-5-4-11 0-15l0-1 1-1 0 0 0 0 7-7 1 0c0 0 0 0 0 0 65-65 65-171 0-236l0 0-7-7c0 0 0 0 0 0 0 0 0 0 0-1l-1 0 0-1c-4-4-4-11 1-16l0 0 0 0c0 0 0 0 0 0 0 0 0 0 0 0l7-7c0 0 0 0 0 0 0 0 0 0 0 0l7-7c0 0 0 0 0 0 0 0 0 0 0 0l1-1 0 0c4-3 11-3 15 0l0 0 8 8c0 0 0 0 0 0 0 0 0 0 0 0l1 1z m-60 59c49 50 49 130 0 179 0 1 0 1-1 1l0 0-8 8 0 0c-5 4-12 4-16 0l0 0-1 0c0 0 0 0 0 0 0-1 0-1 0-1l-14-14c0 0 0 0 0 0 0 0 0 0 0 0l-1-1 0 0c-3-4-3-11 0-15l0 0 1-1c0 0 0 0 0 0 0 0 0 0 0 0l8-8 0 0c0 0 0 0 0 0 32-32 33-84 1-116l0 0-8-8c0 0 0 0 0 0 0 0 0 0 0 0l-1-1 0 0c-4-5-3-12 1-16l0 0 14-15 1-1 1 1c4-4 10-4 15 0l0-1 8 9 0 0z m-54 112c-12 12-32 12-44 0-12-12-12-32 0-44 12-12 32-12 44 0 12 12 12 32 0 44z m-57-89l0 0-1 1c0 0 0 0 0 0 0 0 0 0 0 0l-8 8 0 0c0 0 0 0 0 0-32 32-33 84-1 116l0 0 9 9 0 0c4 5 3 12-1 16l0 0-15 16-1-1c-4 4-10 4-15 0l0 1-1-1-7-8 0 0c-49-50-49-130 0-179 0-1 0-1 1-1l0 0 8-8 0 0c5-4 12-4 16 0l0 0 1 0c0 0 0 0 0 1 0 0 0 0 0 0l14 14c0 0 0 0 0 0 0 0 0 0 0 0l1 1 0 0c3 4 3 11 0 15z m-60-60l0 1-1 1c0 0 0 0 0 0 0 0 0 0 0 0l-7 7-1 0c0 0 0 0 0 0-65 65-65 171 0 236l0 0 7 7c0 0 0 0 0 0 0 0 0 0 0 1l1 0 0 1c4 4 4 11-1 16l1 0-8 7c0 0 0 0 0 0 0 0 0 0 0 0l-8 8 0 0c-4 3-11 3-15 0l0 0-9-9 0 0c-82-82-82-216 1-298 0 0 0 0 0 0l0 0 9-9 0 0c5-4 11-3 16 1l0 0 0 0 14 14c0 0 0 0 0 0 0 0 0 0 0 0l1 1 0 0c4 5 4 11 0 15z"/>
<glyph unicode="&#57423;" d="M469 308c-2 4-6 7-10 7l-144 0-49 139c-2 4-6 7-10 7-4 0-8-3-10-7l-49-139-144 0c-4 0-8-3-10-7-1-4 0-9 4-11l112-90-50-142c-2-4 0-9 3-11 3-3 8-4 12-1l132 79 132-79c2-1 4-2 5-2 3 0 5 1 7 3 3 2 5 7 3 11l-50 142 112 90c4 2 5 7 4 11z"/>
<glyph unicode="&#57424;" d="M410 399c0 6-5 11-11 11 0 0 0 0-1 0l-284 0c0 0 0 0-1 0-6 0-11-5-11-11 0-1 0-1 0-2l0-284 0 0c0 0 0 0 0 0 0-6 5-11 11-11 1 0 1 0 1 0l0 0 285 0 0 0c6 1 11 5 11 11l0 0z"/>
<glyph unicode="&#57425;" d="M486 269l-38 0c-7 96-83 172-179 179l0 38c0 7-6 13-13 13-7 0-13-6-13-13l0-38c-96-7-172-83-179-179l-38 0c-7 0-13-6-13-13 0-7 6-13 13-13l38 0c7-96 83-172 179-179l0-38c0-7 6-13 13-13 7 0 13 6 13 13l0 38c96 7 172 83 179 179l38 0c7 0 13 6 13 13 0 7-6 13-13 13z m-243-154c-67 7-121 61-128 128l26 0c6-53 49-96 102-102z m0 256c-53-6-96-49-102-102l-26 0c7 67 61 121 128 128l0-26z m26 26c67-7 121-61 128-128l-26 0c-6 53-49 96-102 102z m0-282l0 26c53 6 96 49 102 102l26 0c-7-67-61-121-128-128z"/>
<glyph unicode="&#57426;" d="M435 152c-1 6-4 10-9 13l-74 43 0 0c-3 2-7 3-10 3-6 0-12-3-16-7l-22-21c-1-1-4-2-5-3 0 0-25 2-71 48-46 46-48 71-48 71 0 1 2 4 3 5l18 19c7 6 8 17 5 26l-41 76c-3 6-9 10-15 10-5 0-9-2-13-5l-50-50c-5-5-9-14-10-20 0-4-9-81 97-186 89-90 159-97 179-97 4 0 6 0 7 0 6 1 15 5 20 10l50 50c4 5 6 10 5 15z"/>
<glyph unicode="&#57427;" d="M155 422l-54 0c-6 0-11-5-11-11l0-54c0-6 5-12 11-12l54 0c6 0 12 6 12 12l0 54c0 6-6 11-12 11z m128 0l-54 0c-6 0-11-5-11-11l0-54c0-6 5-12 11-12l54 0c6 0 11 6 11 12l0 54c0 6-5 11-11 11z m139-11c0 6-5 11-11 11l-54 0c-6 0-12-5-12-11l0-54c0 0 0 0 0 0 0-6 6-12 12-12l54 0c6 0 11 6 11 12l0 54z m-267-117l-54 0c-6 0-11-5-11-11l0-54c0-6 5-11 11-11l54 0c6 0 12 5 12 11l0 54c0 6-6 11-12 11z m128 0l-54 0c-6 0-11-5-11-11l0-54c0-6 5-11 11-11l54 0c6 0 11 5 11 11l0 54c0 6-5 11-11 11z m128 0l-54 0c-6 0-12-5-12-11l0-54c0 0 0 0 0 0 0-6 6-11 12-11l54 0c6 0 11 5 11 11l0 54c0 6-5 11-11 11z m-256-127l-54 0c-6 0-11-6-11-12l0-54c0-6 5-11 11-11l54 0c6 0 12 5 12 11l0 54c0 6-6 12-12 12z m128 0l-54 0c-6 0-11-6-11-12l0-54c0-6 5-11 11-11l54 0c6 0 11 5 11 11l0 54c0 6-5 12-11 12z m128 0l-54 0c-6 0-12-6-12-12l0-54c0-6 6-11 12-11l54 0c6 0 11 5 11 11l0 54c0 6-5 12-11 12z"/>
<glyph unicode="&#57428;" d="M410 203l-80 38-34 16c15 9 27 24 35 41 6 14 10 29 10 46 0 9-1 18-4 27-10 41-42 72-81 72-38 0-70-30-81-70-2-9-4-19-4-29 0-18 4-34 11-49 8-16 20-30 35-39l-32-15-83-38c-7-4-12-12-12-21l0-91c0-12 8-22 19-22l294 0c11 0 19 10 19 22l0 91c0 9-4 17-12 21z"/>
<glyph unicode="&#57429;" d="M410 203l-80 38-34 16c15 9 27 24 35 41 6 14 10 29 10 46 0 9-1 18-4 27-10 41-42 72-81 72-38 0-70-30-81-70-2-9-4-19-4-29 0-18 4-34 11-49 8-16 20-30 35-39l-33-15-82-38c-7-4-12-12-12-21l0-91c0-12 8-22 19-22l123 0 0 70c0 0 0 1 0 2l0 0 20 35 0 0c1 1 2 2 4 2 2 0 3-1 4-2l0 0 0-1c0 0 0 0 0 0l20-34 0 0c0-1 0-2 0-2l0-70 123 0c11 0 19 10 19 22l0 91c0 9-4 17-12 21z m-130 23l0 0-20-35 0 0c-1-1-2-2-4-2-2 0-3 1-4 2l0 0 0 0c0 0 0 0 0 0l-20 35 0 0c0 0 0 1 0 2 0 2 2 4 4 4l40 0c2 0 4-2 4-4 0-1 0-2 0-2z"/>
<glyph unicode="&#57430;" d="M410 203l-80 38-34 16c1 0 2 1 3 2l44 0c7 0 13 5 13 12l0 33 0 0c-2 46-18 86-41 111-13 14-29 24-48 27 0 0-1 0-2 0-1 0-2 1-3 1-2 0-4 0-6 0 0 0 0 0 0 0-2 0-4 0-6 0-1 0-2 0-3-1-1 0-2 0-2 0-18-3-35-12-47-26-24-26-40-66-42-112l0 0 0-33c0-7 6-12 13-12l44 0c2-1 3-2 4-3l-32-15-83-38c-7-4-12-12-12-21l0-91c0-12 8-22 19-22l294 0c11 0 19 10 19 22l0 91c0 9-4 17-12 21z"/>
<glyph unicode="&#57431;" d="M207 257c4 3 9 7 13 11-14 20-22 46-22 72 0 18 3 35 10 51-10 6-21 10-33 10-36 0-66-34-66-77 0-29 15-55 36-68l-90-41c-5-3-9-9-9-16l0-71c0-9 7-17 15-17l59 0 0 74c0 19 11 36 27 44z m248-52l-77 36-33 16c14 9 26 23 33 39 6 14 10 28 10 44 0 9-2 18-3 26-10 40-41 69-79 69-36 0-67-28-77-67-3-9-4-18-4-28 0-17 4-32 11-46 7-16 19-29 33-38l-31-14-80-37c-7-3-11-11-11-20l0-87c0-12 8-21 18-21l283 0c10 0 18 9 18 21l0 87c0 9-5 16-11 20z"/>
<glyph unicode="&#57432;" d="M492 217l-83 40c20 12 33 36 33 63 0 40-28 72-62 72-12 0-23-4-32-11 6-14 9-29 9-46 0-24-7-48-20-67 4-5 9-9 15-12l0 0 53-25c15-8 25-24 25-41l0-70 57 0c7 0 14 7 14 16l0 66c0 7-4 13-9 15z m-330 40c4 3 8 6 12 10-13 19-21 43-21 68 0 17 4 33 10 47-10 6-20 10-31 10-34 0-62-32-62-72 0-28 14-52 34-64l-84-39c-5-2-9-8-9-15l0-66c0-9 7-16 14-16l55 0 0 70c0 17 10 34 26 41z m232-49l-72 34-31 15c14 8 25 21 32 37 5 12 9 26 9 41 0 9-2 17-4 24-9 38-38 65-73 65-34 0-63-26-73-63-2-8-3-17-3-26 0-16 3-31 10-44 7-14 18-27 31-35l-29-13-75-35c-6-3-10-10-10-18l0-82c0-11 7-20 17-20l264 0c10 0 18 9 18 20l0 82c0 8-5 15-11 18z"/>
<glyph unicode="&#57433;" d="M388 341l-264 0c-7 0-12-5-12-12l0-256c0-6 5-12 12-12l264 0c7 0 12 6 12 12l0 256c0 7-5 12-12 12z m17 82l-101 0 0 16c0 6-5 12-12 12l-72 0c-7 0-12-6-12-12l0-16-100 0c-7 0-13-5-13-12l0-35c0-7 6-13 13-13l297 0c6 0 12 6 12 13l0 35c0 7-6 12-12 12z"/>
<glyph unicode="&#57434;" d="M83 408l50-50c5-6 15-6 20 0 6 6 6 15 0 21l-49 49c0 0 0 0 0 0 0 0 0 0 0 0l0 0 0 0c-6 6-15 6-21 0-6-5-6-15 0-20z m85 19l19-68c2-8 10-12 18-10 7 2 12 10 10 18l-18 68c0 0 0 0 0 0 0 0 0 0 0 0l0 0 0 0c-2 8-10 12-18 10-8-2-12-10-11-18z m-86-117l0 0 0 0c0 0 0 0 0 0l0 0 68-18c8-2 16 2 18 10 2 8-2 16-10 18l-68 18c0 0 0 0 0 0 0 0 0 0 0 0l0 0 0 0c-8 2-16-2-18-10-2-8 3-16 10-18z m347-206l-50 50c-5 6-15 6-20 0-6-6-6-15 0-21l49-49c0 0 0 0 0 0 0 0 0 0 0 0l0 0 0 0c6-6 15-6 21 0 6 5 6 15 0 20z m-85-19l-19 68c-2 8-10 12-18 10-7-2-12-10-10-18l18-68c0 0 0 0 0 0 0 0 0 0 0 0l0 0 0 0c2-8 10-12 18-10 8 2 12 10 11 18z m86 117l0 0 0 0c0 0 0 0 0 0 0 0 0 0 0 0l-68 18c-8 2-16-2-18-10-2-8 2-16 10-18l68-18c0 0 0 0 0 0 0 0 0 0 0 0l0 0 0 0c8-2 16 2 18 10 2 8-3 16-10 18z m-183 45c-39 39-101 40-141 4l0 0-52-52c-40-40-40-105 0-145 40-39 105-39 145 0l52 52 0 0c36 40 35 102-4 141z m-34-106l-3-4 0 0 0 0-46-46c-20-20-53-20-73 0-20 20-20 53 0 73l0 0 46 46 0 0 0 0 3 3 0 0c21 17 51 16 70-3 19-19 20-49 3-69z m245 317c-39 38-101 39-141 3l0 0-52-51c-40-40-40-105 0-145 40-40 105-40 145 0l51 52 0 0c37 40 35 102-3 141z m-34-107l-3-3 0 0 0 0-46-46c-20-20-53-20-73 0-20 20-20 53 0 73l0 0 46 46c0 0 0 0 0 0l3 3 0 0c21 17 51 16 70-3 19-19 20-50 3-70z"/>
<glyph unicode="&#57435;" d="M420 279l-209 0 0 54c0 27 23 48 50 48 28 0 50-21 50-48 0-5 4-10 10-10l51 0c0 0 1 0 1 0 5 0 10 5 10 10 0 1 0 2-1 2-1 64-55 116-121 116-67 0-121-53-121-118l0-54-48 0c-8 0-14-6-14-13l0-192c0-7 6-13 14-13l328 0c8 0 14 6 14 13l0 192c0 7-6 13-14 13z"/>
<glyph unicode="&#57436;" d="M434 160l-96 96 96 96c4 4 4 10 0 14l-68 68c-4 4-10 4-14 0l-96-96-96 96c-4 4-11 4-14 0l-68-68c-2-1-3-4-3-7 0-2 1-5 3-7l96-96-96-96c-2-2-3-5-3-7 0-3 1-6 3-7l68-68c1-2 4-3 7-3 2 0 5 1 7 3l96 96 96-96c2-2 5-3 7-3 3 0 5 1 7 3l68 68c4 4 4 10 0 14z"/>
<glyph unicode="&#57437;" d="M442 392l-20-20-19-19-25-24c-13-1-26 4-36 13-9 10-14 23-13 36l63 64c1 1 1 3 0 4 0 1 0 1-1 1l0 0c0 0 0 0 0 0 0 0 0 0 0 0-14 6-29 10-45 10-61 0-111-50-111-111 0-12 2-23 6-33l-116-116c-39-1-70-32-70-71 0-39 32-71 71-71 39 0 70 31 71 70l116 116c10-4 21-6 33-6 61 0 111 50 111 111 0 16-4 31-10 45 0 0 0 0 0 0 0 0 0 1 0 1l0 0c0 0-1 0-1 0-1 1-3 1-4 0z m-286-266c0-16-14-29-30-29-16 0-29 13-29 29 0 16 13 30 29 30 16 0 30-14 30-30z"/>
<glyph unicode="&#57438;" d="M453 290l-52 5c-4 12-9 25-15 36l33 41c4 4 4 11 0 15l-32 32c-3 2-5 3-8 3-3 0-5-1-7-3l-41-33c-12 6-24 11-36 15l-5 52c-1 6-6 10-11 10l-46 0c-5 0-10-4-11-10l-5-52c-12-4-24-9-36-15l-41 33c-2 2-4 3-7 3-3 0-5-1-8-3l-32-32c-4-4-4-11 0-15l33-41c-6-11-11-24-15-36l-52-5c-6-1-10-6-10-11l0-46c0-5 4-10 10-11l52-5c4-12 9-24 15-36l-33-41c-4-4-4-11 0-15l32-32c3-2 5-3 8-3 3 0 5 1 7 3l41 33c12-6 24-11 36-15l5-52c1-6 6-10 11-10l46 0c5 0 10 4 11 10l5 52c12 4 24 9 36 15l41-33c2-2 4-3 7-3 3 0 5 1 8 3l32 32c4 4 4 11 0 15l-33 41c6 12 11 24 15 36l52 5c6 1 10 6 10 11l0 46c0 5-4 10-10 11z m-197-95c-34 0-61 27-61 61 0 34 27 61 61 61 34 0 61-27 61-61 0-34-27-61-61-61z"/>
<glyph unicode="&#57439;" d="M291 459c-91 0-164-74-164-164 0-31 8-60 23-85l-79-79 0 0c-8-8-14-20-14-33 0-25 21-45 46-45 12 0 24 5 32 14l0-1 82 82c22-11 47-17 74-17 90 0 164 73 164 164 0 90-74 164-164 164z m1-263c-57 0-103 45-103 102 0 56 46 102 103 102 56 0 102-46 102-102 0-57-46-102-102-102z m60 126l0 0-36 0 0 36c0 5-4 8-8 8 0 0-1 0-1 0l-31 0c0 0 0 0 0 0-5 0-8-3-8-8 0 0 0 0 0-1l0-35-37 0c-4 0-8-4-8-8l0-32c0-5 4-8 8-8 1 0 1 0 1 0l36 0-1-36 1 0c0 0 0 0 0 0 0-5 3-8 8-8 0 0 0 0 0 0l0 0 32 0 0 0c4 0 8 3 8 8l0 0 0 36 36 0 0 0c0 0 0 0 0 0 4 0 8 3 8 8l0 32c0 4-4 8-8 8z"/>
<glyph unicode="&#57440;" d="M291 459c-91 0-164-74-164-164 0-31 8-60 23-85l-79-79 0 0c-8-8-14-20-14-33 0-25 21-45 46-45 12 0 24 5 32 14l0-1 82 82c22-11 47-17 74-17 90 0 164 73 164 164 0 90-74 164-164 164z m1-263c-57 0-103 45-103 102 0 56 46 102 103 102 56 0 102-46 102-102 0-57-46-102-102-102z m60 126l-121 0c-4 0-8-4-8-8l0-32c0-5 4-8 8-8l121 0c4 0 8 3 8 8l0 32c0 4-4 8-8 8z"/>
<glyph unicode="&#57441;" d="M391 395c0 0 0 1 0 1 0 1-1 1-1 1l0 1-62 0c-1 0-3-1-4-3l0 0-68-110-68 110 0 0c-1 2-2 3-4 3l-62 0c0 0-1-1-1-2 0 0 0-1 0-1l0 0 85-130-73 0 0 0c0 0 0 0 0 0-4 0-6-2-6-6l0-21 0 0c0-3 3-5 6-5 0 0 0 0 0 0l0 0 94 0 0-33-94 0 0 0c0 0 0 0 0 0-3 0-6-3-6-6l0-20c0-4 3-6 6-6 0 0 0 0 0 0l0 0 94 0 0-47c0 0 0-1 0-1 0-3 3-6 6-6 0 0 0 0 0 0l0 0 47 0 0 0c3 0 6 3 6 6 0 0-1 0-1 0l0 48 95 0 0 0c0 0 0 0 0 0 3 0 6 2 6 6l0 20c0 3-3 6-6 6 0 0 0 0 0 0l0 0-95 0 0 33 95 0 0 0c0 0 0 0 0 0 3 0 6 2 6 6l0 21 0 0c0 3-3 5-6 5 0 0 0 0 0 0l0 0-73 0 84 130z"/>
<glyph unicode="&#57442;" d="M348 206l-50 50 50 50c3 2 3 5 0 7l-35 35c-2 3-5 3-7 0l-50-50-50 50c-2 2-5 2-7 0l-35-35c-1-1-2-2-2-3 0-2 1-3 2-4l50-50-50-50c-1-1-2-2-2-4 0-1 1-2 2-3l35-35c1-1 2-2 3-2 2 0 3 1 4 2l50 50 50-50c1-1 2-2 4-2 1 0 2 1 3 2l35 35c3 2 3 5 0 7z m-92 191c78 0 141-63 141-141 0-78-63-141-141-141-78 0-141 63-141 141 0 78 63 141 141 141m0 51c-106 0-192-86-192-192 0-106 86-192 192-192 106 0 192 86 192 192 0 106-86 192-192 192z"/>
<glyph unicode="&#57443;" d="M399 302c0-3-1-5-3-7l-133-133c-2-2-5-3-7-3-2 0-5 1-7 3l-133 133c-2 2-3 4-3 7 0 2 1 4 3 6l15 15c1 1 4 2 6 2 3 0 5-1 7-2l112-113 112 113c2 1 4 2 7 2 2 0 5-1 6-2l15-15c2-2 3-4 3-6z"/>
<glyph unicode="&#57444;" d="M344 357c0-3-1-5-3-7l-112-112 112-113c2-1 3-4 3-6 0-3-1-5-3-7l-14-14c-2-2-5-3-7-3-2 0-5 1-7 3l-133 133c-2 2-3 4-3 7 0 2 1 4 3 6l133 133c2 2 5 3 7 3 2 0 5-1 7-3l14-14c2-2 3-4 3-6z"/>
<glyph unicode="&#57445;" d="M335 238c0-3-1-5-3-7l-133-133c-2-2-5-3-7-3-2 0-5 1-7 3l-14 14c-2 2-3 4-3 7 0 2 1 5 3 6l112 113-112 112c-2 2-3 4-3 7 0 2 1 4 3 6l14 14c2 2 5 3 7 3 2 0 5-1 7-3l133-133c2-2 3-4 3-6z"/>
<glyph unicode="&#57446;" d="M399 174c0-3-1-5-3-7l-15-14c-1-2-4-3-6-3-3 0-5 1-7 3l-112 112-112-112c-2-2-4-3-7-3-2 0-5 1-6 3l-15 14c-2 2-3 4-3 7 0 2 1 4 3 6l133 133c2 2 5 3 7 3 2 0 5-1 7-3l133-133c2-2 3-4 3-6z"/>
<glyph unicode="&#57447;" d="M399 265c0-2-1-5-3-6l-133-134c-2-1-5-2-7-2-2 0-5 1-7 2l-133 134c-2 1-3 4-3 6 0 3 1 5 3 7l15 14c1 2 4 3 6 3 3 0 5-1 7-3l112-112 112 112c2 2 4 3 7 3 2 0 5-1 6-3l15-14c2-2 3-4 3-7z m0 110c0-3-1-5-3-7l-133-133c-2-2-5-3-7-3-2 0-5 1-7 3l-133 133c-2 2-3 4-3 7 0 2 1 5 3 6l15 15c1 2 4 3 6 3 3 0 5-1 7-3l112-113 112 113c2 2 4 3 7 3 2 0 5-1 6-3l15-15c2-1 3-4 3-6z"/>
<glyph unicode="&#57448;" d="M289 119c0-3-1-5-3-7l-14-14c-2-2-4-3-7-3-2 0-5 1-6 3l-134 133c-1 2-2 4-2 7 0 2 1 4 2 6l134 133c1 2 4 3 6 3 3 0 5-1 7-3l14-14c2-2 3-4 3-6 0-3-1-5-3-7l-112-112 112-113c2-1 3-4 3-6z m110 0c0-3-1-5-3-7l-15-14c-1-2-4-3-6-3-3 0-5 1-7 3l-133 133c-2 2-3 4-3 7 0 2 1 4 3 6l133 133c2 2 4 3 7 3 2 0 5-1 6-3l15-14c2-2 3-4 3-6 0-3-1-5-3-7l-113-112 113-113c2-1 3-4 3-6z"/>
<glyph unicode="&#57449;" d="M280 238c0-3-1-5-3-7l-133-133c-2-2-4-3-7-3-2 0-5 1-6 3l-15 14c-2 2-3 4-3 7 0 2 1 5 3 6l113 113-113 112c-2 2-3 4-3 7 0 2 1 4 3 6l15 14c1 2 4 3 6 3 3 0 5-1 7-3l133-133c2-2 3-4 3-6z m109 0c0-3-1-5-2-7l-134-133c-1-2-4-3-6-3-3 0-5 1-7 3l-14 14c-2 2-3 4-3 7 0 2 1 5 3 6l112 113-112 112c-2 2-3 4-3 7 0 2 1 4 3 6l14 14c2 2 4 3 7 3 2 0 5-1 6-3l134-133c1-2 2-4 2-6z"/>
<glyph unicode="&#57450;" d="M399 137c0-2-1-5-3-6l-15-15c-1-2-4-3-6-3-3 0-5 1-7 3l-112 113-112-113c-2-2-4-3-7-3-2 0-5 1-6 3l-15 15c-2 1-3 4-3 6 0 3 1 5 3 7l133 133c2 2 5 3 7 3 2 0 5-1 7-3l133-133c2-2 3-4 3-7z m0 110c0-3-1-5-3-7l-15-14c-1-2-4-3-6-3-3 0-5 1-7 3l-112 112-112-112c-2-2-4-3-7-3-2 0-5 1-6 3l-15 14c-2 2-3 4-3 7 0 2 1 5 3 6l133 134c2 1 5 2 7 2 2 0 5-1 7-2l133-134c2-1 3-4 3-6z"/>
<glyph unicode="&#57451;" d="M403 256c0 5-1 9-5 13l-26 26c-3 3-7 5-13 5-5 0-9-2-12-5l-54-54 0 143c0 5-2 9-6 13-3 3-8 5-13 5l-36 0c-5 0-10-2-13-5-4-4-6-8-6-13l0-143-54 54c-3 3-7 5-12 5-5 0-10-2-13-5l-26-26c-4-4-5-8-5-13 0-5 1-10 5-13l103-104 26-26c4-3 8-5 13-5 5 0 9 2 13 5l26 26 103 104c4 3 5 8 5 13z m72 0c0-40-9-77-29-110-20-34-46-60-80-80-33-20-70-29-110-29-40 0-77 9-110 29-34 20-60 46-80 80-20 33-29 70-29 110 0 40 9 77 29 110 20 34 46 60 80 80 33 20 70 29 110 29 40 0 77-9 110-29 34-20 60-46 80-80 20-33 29-70 29-110z"/>
<glyph unicode="&#57452;" d="M357 247c0-2-1-5-3-7l-91-91c-3-2-5-3-7-3-2 0-4 1-7 3l-91 91c-3 3-4 7-2 10 2 4 4 6 9 6l54 0 0 101c0 2 1 4 3 6 2 2 4 3 7 3l54 0c3 0 5-1 7-3 2-2 3-4 3-6l0-101 54 0c3 0 5-1 7-3 2-1 3-3 3-6z m-101 164c-28 0-54-7-78-20-24-14-43-33-57-57-13-24-20-50-20-78 0-28 7-54 20-78 14-24 33-43 57-57 24-13 50-20 78-20 28 0 54 7 78 20 24 14 43 33 57 57 13 24 20 50 20 78 0 28-7 54-20 78-14 24-33 43-57 57-24 13-50 20-78 20z m219-155c0-40-9-77-29-110-20-34-46-60-80-80-33-20-70-29-110-29-40 0-77 9-110 29-34 20-60 46-80 80-20 33-29 70-29 110 0 40 9 77 29 110 20 34 46 60 80 80 33 20 70 29 110 29 40 0 77-9 110-29 34-20 60-46 80-80 20-33 29-70 29-110z"/>
<glyph unicode="&#57453;" d="M402 238l0 36c0 5-2 10-5 13-4 4-8 6-13 6l-143 0 54 54c3 3 5 7 5 12 0 5-2 10-5 13l-26 26c-4 4-8 5-13 5-5 0-10-1-13-5l-104-103-26-26c-3-4-5-8-5-13 0-5 2-9 5-13l26-26 104-103c3-4 8-5 13-5 5 0 9 1 13 5l26 26c3 3 5 7 5 13 0 5-2 9-5 12l-54 54 143 0c5 0 9 2 13 6 3 3 5 8 5 13z m73 18c0-40-9-77-29-110-20-34-46-60-80-80-33-20-70-29-110-29-40 0-77 9-110 29-34 20-60 46-80 80-20 33-29 70-29 110 0 40 9 77 29 110 20 34 46 60 80 80 33 20 70 29 110 29 40 0 77-9 110-29 34-20 60-46 80-80 20-33 29-70 29-110z"/>
<glyph unicode="&#57454;" d="M404 256c0 5-2 9-5 13l-26 26-104 103c-3 4-8 5-13 5-5 0-9-1-13-5l-26-26c-3-3-5-7-5-13 0-5 2-9 5-12l54-54-143 0c-5 0-9-2-13-6-3-3-5-8-5-13l0-36c0-5 2-10 5-13 4-4 8-6 13-6l143 0-54-54c-3-3-5-7-5-12 0-5 2-10 5-13l26-26c4-4 8-5 13-5 5 0 10 1 13 5l104 103 26 26c3 4 5 8 5 13z m71 0c0-40-9-77-29-110-20-34-46-60-80-80-33-20-70-29-110-29-40 0-77 9-110 29-34 20-60 46-80 80-20 33-29 70-29 110 0 40 9 77 29 110 20 34 46 60 80 80 33 20 70 29 110 29 40 0 77-9 110-29 34-20 60-46 80-80 20-33 29-70 29-110z"/>
<glyph unicode="&#57455;" d="M375 256c0-7-3-12-9-16l-156-91c-3-2-6-3-9-3-3 0-6 1-9 3-6 3-9 9-9 16l0 182c0 7 3 13 9 16 6 4 12 4 18 0l156-91c6-4 9-9 9-16z m36 0c0 28-7 54-20 78-14 24-33 43-57 57-24 13-50 20-78 20-28 0-54-7-78-20-24-14-43-33-57-57-13-24-20-50-20-78 0-28 7-54 20-78 14-24 33-43 57-57 24-13 50-20 78-20 28 0 54 7 78 20 24 14 43 33 57 57 13 24 20 50 20 78z m64 0c0-40-9-77-29-110-20-34-46-60-80-80-33-20-70-29-110-29-40 0-77 9-110 29-34 20-60 46-80 80-20 33-29 70-29 110 0 40 9 77 29 110 20 34 46 60 80 80 33 20 70 29 110 29 40 0 77-9 110-29 34-20 60-46 80-80 20-33 29-70 29-110z"/>
<glyph unicode="&#57456;" d="M403 256c0 5-1 10-5 13l-103 104-26 26c-4 3-8 5-13 5-5 0-9-2-13-5l-26-26-103-104c-4-3-5-8-5-13 0-5 1-9 5-13l26-26c3-3 7-5 13-5 5 0 9 2 12 5l54 54 0-143c0-5 2-9 6-13 3-3 8-5 13-5l36 0c5 0 10 2 13 5 4 4 6 8 6 13l0 143 54-54c3-3 7-5 12-5 5 0 10 2 13 5l26 26c4 4 5 8 5 13z m72 0c0-40-9-77-29-110-20-34-46-60-80-80-33-20-70-29-110-29-40 0-77 9-110 29-34 20-60 46-80 80-20 33-29 70-29 110 0 40 9 77 29 110 20 34 46 60 80 80 33 20 70 29 110 29 40 0 77-9 110-29 34-20 60-46 80-80 20-33 29-70 29-110z"/>
<glyph unicode="&#57457;" d="M356 262c-2-4-4-6-9-6l-54 0 0-101c0-2-1-4-3-6-2-2-4-3-7-3l-54 0c-3 0-5 1-7 3-2 2-3 4-3 6l0 101-54 0c-3 0-5 1-7 3-2 1-3 3-3 6 0 2 1 5 3 7l91 91c3 2 5 3 7 3 2 0 4-1 7-3l91-91c3-3 4-7 2-10z m-100 149c-28 0-54-7-78-20-24-14-43-33-57-57-13-24-20-50-20-78 0-28 7-54 20-78 14-24 33-43 57-57 24-13 50-20 78-20 28 0 54 7 78 20 24 14 43 33 57 57 13 24 20 50 20 78 0 28-7 54-20 78-14 24-33 43-57 57-24 13-50 20-78 20z m219-155c0-40-9-77-29-110-20-34-46-60-80-80-33-20-70-29-110-29-40 0-77 9-110 29-34 20-60 46-80 80-20 33-29 70-29 110 0 40 9 77 29 110 20 34 46 60 80 80 33 20 70 29 110 29 40 0 77-9 110-29 34-20 60-46 80-80 20-33 29-70 29-110z"/>
<glyph unicode="&#57458;" d="M479 274c0-10-4-18-11-25l-186-187c-7-7-16-10-26-10-10 0-19 3-26 10l-186 187c-7 6-11 15-11 25 0 10 4 19 11 26l21 22c8 7 17 10 26 10 11 0 19-3 26-10l84-84 0 201c0 10 4 18 11 26 7 7 16 10 26 10l36 0c10 0 19-3 26-10 7-8 11-16 11-26l0-201 84 84c7 7 15 10 26 10 9 0 18-3 26-10l21-22c7-7 11-16 11-26z"/>
<glyph unicode="&#57459;" d="M475 256l0-37c0-10-3-18-9-25-6-8-14-11-24-11l-201 0 84-84c7-7 10-16 10-26 0-10-3-19-10-26l-22-21c-7-7-15-11-26-11-9 0-18 4-26 11l-186 186c-7 7-10 16-10 26 0 10 3 18 10 26l186 185c8 8 16 11 26 11 10 0 19-3 26-11l22-21c7-7 10-16 10-26 0-10-3-18-10-26l-84-83 201 0c10 0 18-4 24-11 6-7 9-16 9-26z"/>
<glyph unicode="&#57460;" d="M457 238c0-11-3-19-10-26l-186-186c-8-7-17-11-26-11-10 0-19 4-26 11l-22 21c-7 7-10 16-10 26 0 10 3 19 10 26l84 84-201 0c-10 0-18 3-24 11-6 7-9 15-9 25l0 37c0 10 3 19 9 26 6 7 14 11 24 11l201 0-84 84c-7 6-10 15-10 25 0 11 3 19 10 26l22 21c7 8 16 11 26 11 10 0 18-3 26-11l186-186c7-6 10-15 10-25z"/>
<glyph unicode="&#57461;" d="M479 235c0-10-4-19-11-26l-21-22c-8-7-16-10-26-10-11 0-19 3-26 10l-84 84 0-201c0-10-4-18-11-24-7-6-16-9-26-9l-36 0c-10 0-19 3-26 9-7 6-11 14-11 24l0 201-84-84c-7-7-15-10-26-10-10 0-18 3-25 10l-22 22c-7 7-11 16-11 26 0 10 4 18 11 26l186 186c7 7 16 10 26 10 10 0 19-3 26-10l186-186c7-8 11-17 11-26z"/>
<glyph unicode="&#57462;" d="M442 212c8-5 14-12 17-22 2-10 1-19-4-28l-18-31c-5-9-12-15-22-17-10-3-19-2-28 3l-76 44 0-88c0-10-4-18-11-26-7-7-16-10-26-10l-36 0c-10 0-19 3-26 10-7 8-11 16-11 26l0 88-76-44c-9-5-18-6-28-3-10 2-17 8-22 17l-18 31c-5 9-6 18-4 28 3 10 9 17 17 22l76 44-76 44c-8 5-14 12-17 22-2 10-1 19 4 28l18 31c5 9 12 15 22 17 10 3 19 2 28-3l76-44 0 88c0 10 4 18 11 26 7 7 16 10 26 10l36 0c10 0 19-3 26-10 7-8 11-16 11-26l0-88 76 44c9 5 18 6 28 3 10-2 17-8 22-17l18-31c5-9 6-18 4-28-3-10-9-17-17-22l-76-44z"/>
<glyph unicode="&#57463;" d="M261 27c0 3-2 5-5 5-11 0-21 4-29 12-8 8-12 18-12 29 0 3-2 5-5 5-3 0-4-2-4-5 0-14 5-26 14-35 10-10 22-15 36-15 3 0 5 1 5 4z m233 83c0-10-4-19-11-26-7-7-16-11-26-11l-128 0c0-20-7-37-21-52-15-14-32-21-52-21-20 0-37 7-52 21-14 15-21 32-21 52l-128 0c-10 0-19 4-26 11-7 7-11 16-11 26 36 30 64 68 82 113 19 45 28 93 28 143 0 31 9 56 27 75 19 18 44 29 76 33-2 3-2 7-2 11 0 7 2 14 8 19 5 5 11 8 19 8 8 0 14-3 19-8 6-5 8-12 8-19 0-4 0-8-2-11 32-4 57-15 76-33 18-19 27-44 27-75 0-50 9-98 28-143 18-45 46-83 82-113z"/>
<glyph unicode="&#57464;" d="M137 222l0-103-69 0 0 103z m102 136l0-239-68 0 0 239z m102-68l0-171-68 0 0 171z m103 103l0-274-69 0 0 274z m34-299l0 324c0 2-1 4-3 6-1 2-3 3-6 3l-426 0c-3 0-5-1-6-3-2-2-3-4-3-6l0-324c0-2 1-4 3-6 1-2 3-3 6-3l426 0c3 0 5 1 6 3 2 2 3 4 3 6z m34 324l0-324c0-12-4-22-13-30-8-9-18-13-30-13l-426 0c-12 0-22 4-30 13-9 8-13 18-13 30l0 324c0 12 4 22 13 30 8 9 18 13 30 13l426 0c12 0 22-4 30-13 9-8 13-18 13-30z"/>
<glyph unicode="&#57465;" d="M261 27c0 3-2 5-5 5-11 0-21 4-29 12-8 8-12 18-12 29 0 3-2 5-5 5-3 0-4-2-4-5 0-14 5-26 14-35 10-10 22-15 36-15 3 0 5 1 5 4z m-190 83l370 0c-31 34-54 73-70 117-16 44-24 90-24 139 0 48-30 73-91 73-61 0-91-25-91-73 0-49-8-95-24-139-16-44-39-83-70-117z m423 0c0-10-4-19-11-26-7-7-16-11-26-11l-128 0c0-20-7-37-21-52-15-14-32-21-52-21-20 0-37 7-52 21-14 15-21 32-21 52l-128 0c-10 0-19 4-26 11-7 7-11 16-11 26 36 30 64 68 82 113 19 45 28 93 28 143 0 31 9 56 27 75 19 18 44 29 76 33-2 3-2 7-2 11 0 7 2 14 8 19 5 5 11 8 19 8 8 0 14-3 19-8 6-5 8-12 8-19 0-4 0-8-2-11 32-4 57-15 76-33 18-19 27-44 27-75 0-50 9-98 28-143 18-45 46-83 82-113z"/>
<glyph unicode="&#57466;" d="M183 402l146 0 0 37-146 0z m-101 0l0-365-18 0c-18 0-33 6-45 18-13 13-19 28-19 46l0 237c0 18 6 33 19 45 12 13 27 19 45 19z m320 0l0-365-292 0 0 365 36 0 0 46c0 8 3 14 8 19 6 6 12 8 20 8l164 0c8 0 14-2 20-8 5-5 8-11 8-19l0-46z m110-64l0-237c0-18-6-33-19-46-12-12-27-18-45-18l-18 0 0 365 18 0c18 0 33-6 45-19 13-12 19-27 19-45z"/>
<glyph unicode="&#57467;" d="M183 439l146 0 0 36-146 0z m329-183l0-137c0-13-4-23-13-32-9-9-20-14-33-14l-420 0c-13 0-24 5-33 14-9 9-13 19-13 32l0 137 192 0 0-46c0-5 2-9 5-13 4-3 8-5 13-5l92 0c5 0 9 2 13 5 3 4 5 8 5 13l0 46z m-219 0l0-37-74 0 0 37z m219 137l0-110-512 0 0 110c0 13 4 23 13 32 9 9 20 14 33 14l100 0 0 46c0 7 3 14 8 19 6 5 12 8 20 8l164 0c8 0 14-3 20-8 5-5 8-12 8-19l0-46 100 0c13 0 24-5 33-14 9-9 13-19 13-32z"/>
<glyph unicode="&#57469;" d="M55 37l402 0 0 292-402 0z m110 347l0 82c0 3-1 5-3 7-2 2-4 2-7 2l-18 0c-3 0-5 0-6-2-2-2-3-4-3-7l0-82c0-3 1-5 3-7 1-1 3-2 6-2l18 0c3 0 5 1 7 2 2 2 3 4 3 7z m219 0l0 82c0 3-1 5-3 7-1 2-3 2-6 2l-18 0c-3 0-5 0-7-2-2-2-3-4-3-7l0-82c0-3 1-5 3-7 2-1 4-2 7-2l18 0c3 0 5 1 6 2 2 2 3 4 3 7z m110 18l0-365c0-10-4-19-11-26-7-7-16-11-26-11l-402 0c-10 0-19 4-26 11-7 7-11 16-11 26l0 365c0 10 4 19 11 26 7 7 16 11 26 11l36 0 0 27c0 13 5 24 14 33 9 9 20 13 32 13l18 0c13 0 24-4 33-13 9-9 13-20 13-33l0-27 110 0 0 27c0 13 4 24 13 33 9 9 20 13 33 13l18 0c12 0 23-4 32-13 9-9 14-20 14-33l0-27 36 0c10 0 19-4 26-11 7-7 11-16 11-26z"/>
<glyph unicode="&#57470;" d="M402 171c0 2 0 4 0 5-1 1-5 4-11 8-7 4-15 9-26 14l-15 9c-1 0-2 1-5 3-3 2-5 4-7 5-2 1-4 1-6 1-4 0-8-3-14-9-5-6-11-13-16-19-5-6-10-9-13-9-1 0-2 0-4 1-2 0-4 1-5 1-1 1-2 2-5 3-2 1-3 2-4 3-18 10-35 22-48 36-14 13-26 30-36 48-1 1-2 2-3 4-1 3-2 4-3 5 0 1-1 3-1 5-1 2-1 3-1 4 0 3 2 6 5 10 4 4 9 8 13 11 5 3 9 7 13 11 4 4 6 8 6 11 0 2 0 4-1 6-1 2-3 4-5 7-2 3-3 4-3 5-1 1-2 4-5 8-2 5-4 9-7 13-2 5-5 9-7 14-3 5-5 9-8 12-2 3-3 4-4 5-1 0-3 0-5 0-9 0-19-2-29-6-8-4-16-13-23-27-6-14-9-26-9-37 0-3 0-7 0-10 1-3 1-6 2-9 0-2 1-5 2-9 2-4 3-7 3-9 1-1 2-4 4-9 2-5 3-7 3-9 11-31 32-61 62-91 30-30 60-51 91-62 2 0 4-1 9-3 5-2 8-3 9-4 2 0 5-1 9-3 4-1 7-2 9-2 3-1 6-1 9-2 3 0 7 0 10 0 11 0 23 3 37 9 14 7 23 15 27 23 4 10 6 20 6 29z m73 222l0-274c0-23-8-42-24-58-16-16-35-24-58-24l-274 0c-23 0-42 8-58 24-16 16-24 35-24 58l0 274c0 23 8 42 24 58 16 16 35 24 58 24l274 0c23 0 42-8 58-24 16-16 24-35 24-58z"/>
<glyph unicode="&#57471;" d="M265 274c0 3-1 5-2 7-2 2-4 2-7 2-13 0-23-4-32-13-9-9-14-20-14-32 0-3 1-5 3-7 2-2 4-2 6-2 3 0 5 0 7 2 2 2 3 4 3 7 0 7 2 14 8 19 5 5 11 8 19 8 3 0 5 1 7 3 1 1 2 4 2 6z m64-37c0-20-7-37-21-52-15-14-32-21-52-21-20 0-37 7-52 21-14 15-21 32-21 52 0 20 7 38 21 52 15 14 32 21 52 21 20 0 37-7 52-21 14-14 21-32 21-52z m-292-164l438 0 0 37-438 0z m329 164c0 30-11 56-32 78-22 21-48 32-78 32-30 0-56-11-78-32-21-22-32-48-32-78 0-30 11-56 32-77 22-22 48-33 78-33 30 0 56 11 78 33 21 21 32 47 32 77z m-293 184l110 0 0 36-110 0z m-36-55l438 0 0 73-236 0-18-37-184 0z m475 73l0-366c0-10-4-19-11-26-7-7-15-10-26-10l-438 0c-11 0-19 3-26 10-7 7-11 16-11 26l0 366c0 10 4 19 11 26 7 7 15 10 26 10l438 0c11 0 19-3 26-10 7-7 11-16 11-26z"/>
<glyph unicode="&#57472;" d="M256 316c21 0 39-8 54-23 15-15 23-33 23-54 0-21-8-39-23-54-15-15-33-23-54-23-21 0-39 8-54 23-15 15-23 33-23 54 0 21 8 39 23 54 15 15 33 23 54 23z m188 111c19 0 35-7 48-20 13-14 20-30 20-49l0-239c0-18-7-34-20-48-13-13-29-20-48-20l-376 0c-19 0-35 7-48 20-13 14-20 30-20 48l0 239c0 19 7 35 20 49 13 13 29 20 48 20l60 0 14 36c3 9 9 16 18 22 9 7 18 10 28 10l136 0c10 0 19-3 28-10 9-6 15-13 18-22l14-36z m-188-308c33 0 61 12 84 36 24 23 35 51 35 84 0 33-11 61-35 84-23 24-51 35-84 35-33 0-61-11-84-35-24-23-35-51-35-84 0-33 11-61 35-84 23-24 51-36 84-36z"/>
<glyph unicode="&#57473;" d="M402 311c0-5-2-9-5-13l-128-128c-4-4-8-5-13-5-5 0-9 1-13 5l-128 128c-3 4-5 8-5 13 0 5 2 9 5 13 4 3 8 5 13 5l256 0c5 0 9-2 13-5 3-4 5-8 5-13z"/>
<glyph unicode="&#57474;" d="M402 201c0-5-2-9-5-13l-128-128c-4-3-8-5-13-5-5 0-9 2-13 5l-128 128c-3 4-5 8-5 13 0 5 2 9 5 13 4 4 8 5 13 5l256 0c5 0 9-1 13-5 3-4 5-8 5-13z"/>
<glyph unicode="&#57475;" d="M347 384l0-256c0-5-1-9-5-13-4-3-8-5-13-5-5 0-9 2-13 5l-128 128c-3 4-5 8-5 13 0 5 2 9 5 13l128 128c4 3 8 5 13 5 5 0 9-2 13-5 4-4 5-8 5-13z"/>
<glyph unicode="&#57476;" d="M329 256c0-5-2-9-5-13l-128-128c-4-3-8-5-13-5-5 0-9 2-13 5-4 4-5 8-5 13l0 256c0 5 1 9 5 13 4 3 8 5 13 5 5 0 9-2 13-5l128-128c3-4 5-8 5-13z"/>
<glyph unicode="&#57477;" d="M402 311c0-5-2-9-5-13-4-4-8-5-13-5l-256 0c-5 0-9 1-13 5-3 4-5 8-5 13 0 5 2 9 5 13l128 128c4 3 8 5 13 5 5 0 9-2 13-5l128-128c3-4 5-8 5-13z"/>
<glyph unicode="&#57478;" d="M402 201c0-5-2-9-5-13l-128-128c-4-3-8-5-13-5-5 0-9 2-13 5l-128 128c-3 4-5 8-5 13 0 5 2 9 5 13 4 4 8 5 13 5l256 0c5 0 9-1 13-5 3-4 5-8 5-13z m0 110c0-5-2-9-5-13-4-4-8-5-13-5l-256 0c-5 0-9 1-13 5-3 4-5 8-5 13 0 5 2 9 5 13l128 128c4 3 8 5 13 5 5 0 9-2 13-5l128-128c3-4 5-8 5-13z"/>
<glyph unicode="&#57479;" d="M402 165c0-5-2-10-5-13-4-4-8-6-13-6l-256 0c-5 0-9 2-13 6-3 3-5 8-5 13 0 5 2 9 5 12l128 128c4 4 8 6 13 6 5 0 9-2 13-6l128-128c3-3 5-7 5-12z"/>
<glyph unicode="&#57480;" d="M430 256l39-39c6-5 8-12 6-20-2-7-7-12-15-14l-54-14 15-53c3-8 1-14-5-20-6-6-12-8-20-5l-53 15-14-54c-2-8-7-13-14-15-3 0-5 0-6 0-6 0-11 2-14 6l-39 39-39-39c-5-6-12-8-20-6-7 2-12 7-14 15l-14 54-53-15c-8-3-14-1-20 5-6 6-8 12-5 20l15 53-54 14c-8 2-13 7-15 14-2 8 0 15 6 20l39 39-39 39c-6 5-8 12-6 20 2 7 7 12 15 14l54 14-15 53c-3 8-1 14 5 20 6 6 12 8 20 5l53-15 14 54c2 8 7 13 14 15 8 2 15 0 20-6l39-40 39 40c5 6 12 8 20 6 7-2 12-7 14-15l14-54 53 15c8 3 14 1 20-5 6-6 8-12 5-20l-15-53 54-14c8-2 13-7 15-14 2-8 0-15-6-20z"/>
<glyph unicode="&#57481;" d="M256 402c-39 0-75-6-109-20-34-13-61-31-81-53-19-23-29-47-29-73 0-21 6-42 20-61 14-19 33-36 58-50l24-14-7-28c-5-17-12-34-20-49 29 12 55 28 78 49l13 11 16-2c13-2 25-2 37-2 39 0 75 6 109 20 34 13 61 31 81 53 19 23 29 47 29 73 0 26-10 50-29 73-20 22-47 40-81 53-34 14-70 20-109 20z m256-146c0-33-11-64-34-92-23-28-54-50-93-66-40-17-83-25-129-25-13 0-27 1-41 2-38-33-82-56-132-69-9-2-20-4-32-6l-2 0c-3 0-5 1-8 3-2 2-3 5-4 8l0 0c-1 1-1 2 0 4 0 1 0 2 0 2 0 1 1 2 2 3l1 3c0 0 1 1 2 2 2 2 2 3 3 3 1 1 4 5 8 10 5 5 8 8 10 10 2 3 5 6 9 12 4 5 7 10 9 14 3 5 5 10 8 17 3 7 5 14 8 22-30 17-54 38-71 63-17 25-26 51-26 80 0 33 11 64 34 92 23 28 54 50 93 66 40 17 83 25 129 25 46 0 89-8 129-25 39-16 70-38 93-66 23-28 34-59 34-92z"/>
<glyph unicode="&#57482;" d="M201 402c-29 0-56-5-82-15-25-9-45-23-60-40-15-17-22-35-22-54 0-16 5-31 15-46 10-14 24-27 42-37l28-16-10-24c6 4 12 7 18 11l12 9 15-3c15-3 30-4 44-4 29 0 57 5 82 15 25 10 45 23 60 40 15 17 23 35 23 55 0 19-8 37-23 54-15 17-35 31-60 40-25 10-53 15-82 15z m0 37c37 0 70-7 101-20 31-13 56-31 73-53 18-22 27-47 27-73 0-27-9-51-27-74-17-22-42-40-73-53-31-13-64-20-101-20-16 0-33 2-50 5-24-17-50-29-80-37-6-1-15-3-24-4l-1 0c-2 0-4 0-6 2-2 2-3 4-3 6 0 1 0 1 0 2 0 1 0 1 0 2 0 0 0 1 0 1l1 2c0 0 0 0 1 1 1 1 1 2 1 2 0 0 1 0 1 1 1 1 2 2 2 2 1 1 3 3 6 7 4 3 6 6 8 8 1 2 3 5 6 8 3 4 5 8 7 11 2 4 4 8 6 13-24 14-42 31-56 51-13 20-20 41-20 64 0 26 9 51 27 73 18 22 42 40 73 53 31 13 65 20 101 20z m235-334c2-5 4-9 6-13 2-4 4-7 7-11 3-3 5-6 6-8 2-2 4-5 8-8 3-4 5-6 6-8 1 0 1 0 2-1 0-1 1-1 1-1 0-1 1-1 1-2 0 0 1-1 1-1l1-2c0 0 0 0 0-1 1-2 1-2 0-2 0 0 0-1 0-2 0-3-2-5-4-6-1-2-4-3-6-2-9 1-18 2-24 4-30 8-56 20-80 37-17-3-34-5-50-5-52 0-97 13-135 38 11-1 19-1 25-1 31 0 60 4 88 13 29 8 54 20 76 36 24 18 42 38 55 61 12 23 19 47 19 73 0 14-2 29-7 43 25-14 44-30 59-51 14-20 21-42 21-66 0-22-7-44-20-64-14-20-32-36-56-50z"/>
<glyph unicode="&#57483;" d="M479 311c0-10-4-19-11-26l-186-186c-7-7-16-11-26-11-10 0-19 4-26 11l-186 186c-7 7-11 16-11 26 0 10 4 19 11 26l21 21c8 7 17 11 26 11 11 0 19-4 26-11l139-139 139 139c7 7 15 11 26 11 9 0 18-4 26-11l21-21c7-8 11-16 11-26z"/>
<glyph unicode="&#57484;" d="M269 141l130 130c3 3 5 7 5 12 0 5-2 10-5 13l-30 29c-3 4-7 6-12 6-5 0-10-2-13-6l-88-87-88 87c-3 4-8 6-13 6-5 0-9-2-12-6l-30-29c-3-3-5-8-5-13 0-5 2-9 5-12l130-130c4-4 8-6 13-6 5 0 9 2 13 6z m206 115c0-40-9-77-29-110-20-34-46-60-80-80-33-20-70-29-110-29-40 0-77 9-110 29-34 20-60 46-80 80-20 33-29 70-29 110 0 40 9 77 29 110 20 34 46 60 80 80 33 20 70 29 110 29 40 0 77-9 110-29 34-20 60-46 80-80 20-33 29-70 29-110z"/>
<glyph unicode="&#57485;" d="M303 63l-186 186c-7 7-10 15-10 25 0 11 3 19 10 26l186 186c7 7 16 11 26 11 10 0 19-4 26-11l22-21c7-7 10-16 10-26 0-10-3-19-10-26l-139-139 139-138c7-8 10-16 10-26 0-10-3-19-10-26l-22-21c-7-7-16-11-26-11-10 0-19 4-26 11z"/>
<glyph unicode="&#57486;" d="M405 274c0-10-3-18-10-26l-186-186c-7-7-16-10-26-10-10 0-19 3-26 10l-22 22c-7 7-10 16-10 26 0 10 3 18 10 25l139 139-139 139c-7 7-10 16-10 26 0 10 3 19 10 26l22 21c7 7 16 11 26 11 10 0 19-4 26-11l186-186c7-7 10-16 10-26z"/>
<glyph unicode="&#57487;" d="M479 165c0-11-4-19-11-26l-21-22c-8-7-16-10-26-10-11 0-19 3-26 10l-139 139-139-139c-7-7-15-10-26-10-10 0-18 3-25 10l-22 22c-7 7-11 15-11 26 0 10 4 18 11 26l186 186c7 7 16 10 26 10 10 0 19-3 26-10l186-186c7-8 11-16 11-26z"/>
<glyph unicode="&#57488;" d="M369 187l30 29c3 3 5 8 5 13 0 5-2 9-5 12l-130 130c-4 4-8 6-13 6-5 0-9-2-13-6l-130-130c-3-3-5-7-5-12 0-5 2-10 5-13l30-29c3-4 7-6 12-6 5 0 10 2 13 6l88 87 88-87c3-4 8-6 13-6 5 0 9 2 12 6z m106 69c0-40-9-77-29-110-20-34-46-60-80-80-33-20-70-29-110-29-40 0-77 9-110 29-34 20-60 46-80 80-20 33-29 70-29 110 0 40 9 77 29 110 20 34 46 60 80 80 33 20 70 29 110 29 40 0 77-9 110-29 34-20 60-46 80-80 20-33 29-70 29-110z"/>
<glyph unicode="&#57489;" d="M475 256c0-40-9-77-29-110-20-34-46-60-80-80-33-20-70-29-110-29-40 0-77 9-110 29-34 20-60 46-80 80-20 33-29 70-29 110 0 40 9 77 29 110 20 34 46 60 80 80 33 20 70 29 110 29 40 0 77-9 110-29 34-20 60-46 80-80 20-33 29-70 29-110z"/>
<glyph unicode="&#57490;" d="M256 411c-28 0-54-7-78-20-24-14-43-33-57-57-13-24-20-50-20-78 0-28 7-54 20-78 14-24 33-43 57-57 24-13 50-20 78-20 28 0 54 7 78 20 24 14 43 33 57 57 13 24 20 50 20 78 0 28-7 54-20 78-14 24-33 43-57 57-24 13-50 20-78 20z m219-155c0-40-9-77-29-110-20-34-46-60-80-80-33-20-70-29-110-29-40 0-77 9-110 29-34 20-60 46-80 80-20 33-29 70-29 110 0 40 9 77 29 110 20 34 46 60 80 80 33 20 70 29 110 29 40 0 77-9 110-29 34-20 60-46 80-80 20-33 29-70 29-110z"/>
<glyph unicode="&#57491;" d="M293 357l0-128c0-3-1-5-3-7-2-2-4-3-7-3l-91 0c-3 0-5 1-7 3-1 2-2 4-2 7l0 18c0 3 1 5 2 6 2 2 4 3 7 3l64 0 0 101c0 2 1 4 3 6 1 2 3 3 6 3l18 0c3 0 5-1 7-3 2-2 3-4 3-6z m118-101c0 28-7 54-20 78-14 24-33 43-57 57-24 13-50 20-78 20-28 0-54-7-78-20-24-14-43-33-57-57-13-24-20-50-20-78 0-28 7-54 20-78 14-24 33-43 57-57 24-13 50-20 78-20 28 0 54 7 78 20 24 14 43 33 57 57 13 24 20 50 20 78z m64 0c0-40-9-77-29-110-20-34-46-60-80-80-33-20-70-29-110-29-40 0-77 9-110 29-34 20-60 46-80 80-20 33-29 70-29 110 0 40 9 77 29 110 20 34 46 60 80 80 33 20 70 29 110 29 40 0 77-9 110-29 34-20 60-46 80-80 20-33 29-70 29-110z"/>
<glyph unicode="&#57492;" d="M350 204l-42-42c-2-2-4-3-6-3-3 0-5 1-7 3l-39 39-39-39c-2-2-4-3-7-3-2 0-4 1-6 3l-42 42c-2 2-3 4-3 6 0 3 1 5 3 7l39 39-39 39c-2 2-3 4-3 7 0 2 1 4 3 6l42 42c2 2 4 3 6 3 3 0 5-1 7-3l39-39 39 39c2 2 4 3 7 3 2 0 4-1 6-3l42-42c2-2 3-4 3-6 0-3-1-5-3-7l-39-39 39-39c2-2 3-4 3-7 0-2-1-4-3-6z m61 52c0 28-7 54-20 78-14 24-33 43-57 57-24 13-50 20-78 20-28 0-54-7-78-20-24-14-43-33-57-57-13-24-20-50-20-78 0-28 7-54 20-78 14-24 33-43 57-57 24-13 50-20 78-20 28 0 54 7 78 20 24 14 43 33 57 57 13 24 20 50 20 78z m64 0c0-40-9-77-29-110-20-34-46-60-80-80-33-20-70-29-110-29-40 0-77 9-110 29-34 20-60 46-80 80-20 33-29 70-29 110 0 40 9 77 29 110 20 34 46 60 80 80 33 20 70 29 110 29 40 0 77-9 110-29 34-20 60-46 80-80 20-33 29-70 29-110z"/>
<glyph unicode="&#57493;" d="M329 256c0 20-7 37-21 52-15 14-32 21-52 21-20 0-37-7-52-21-14-15-21-32-21-52 0-20 7-37 21-52 15-14 32-21 52-21 20 0 37 7 52 21 14 15 21 32 21 52z m146 31l0-63c0-3 0-5-2-7-1-2-3-3-6-4l-52-8c-4-10-8-19-12-26 7-9 17-22 31-39 2-2 3-5 3-7 0-3-1-5-3-7-5-7-14-17-28-31-14-13-23-20-27-20-2 0-5 1-7 3l-40 31c-8-5-17-8-26-11-3-26-6-44-8-53-1-6-5-8-10-8l-64 0c-2 0-5 0-7 2-2 2-3 4-3 6l-8 53c-9 3-18 6-26 10l-40-30c-2-2-4-3-7-3-3 0-5 1-7 3-24 22-40 38-47 48-2 2-2 4-2 7 0 2 0 4 2 6 3 4 8 11 14 19 7 9 12 16 16 21-5 9-9 19-12 28l-52 8c-3 0-5 1-6 3-2 2-2 4-2 7l0 63c0 3 0 5 2 7 1 2 3 3 5 4l53 8c3 8 7 17 12 26-8 11-18 24-31 39-2 3-3 5-3 7 0 2 1 4 3 7 5 7 14 17 28 30 14 14 23 21 27 21 2 0 5-1 7-3l40-31c8 5 17 8 26 11 3 26 6 44 8 53 1 6 5 8 10 8l64 0c2 0 5 0 7-2 2-2 3-4 3-6l8-53c9-3 18-6 26-10l40 30c2 2 4 3 7 3 3 0 5-1 7-3 25-23 41-39 47-49 2-1 2-3 2-6 0-2 0-4-2-6-3-4-8-11-14-19-7-9-12-16-16-21 5-9 9-18 12-28l52-8c3 0 5-1 6-3 2-2 2-4 2-7z"/>
<glyph unicode="&#57494;" d="M403 357l-101-101 101-101 41 41c6 6 12 7 20 4 8-4 11-9 11-17l0-128c0-5-1-9-5-13-4-4-8-5-13-5l-128 0c-8 0-13 3-17 11-3 7-2 14 4 20l41 41-101 101-101-101 41-41c6-6 7-13 4-20-4-8-9-11-17-11l-128 0c-5 0-9 1-13 5-4 4-5 8-5 13l0 128c0 8 3 13 11 17 7 3 14 2 20-4l41-41 101 101-101 101-41-41c-4-3-8-5-13-5-2 0-5 0-7 1-8 4-11 9-11 17l0 128c0 5 1 9 5 13 4 4 8 5 13 5l128 0c8 0 13-3 17-11 3-7 2-14-4-20l-41-41 101-101 101 101-41 41c-6 6-7 13-4 20 4 8 9 11 17 11l128 0c5 0 9-1 13-5 4-4 5-8 5-13l0-128c0-8-3-13-11-17-2-1-5-1-7-1-5 0-9 2-13 5z"/>
<glyph unicode="&#57495;" d="M512 256c0-5-2-9-5-13l-74-73c-3-4-7-5-12-5-5 0-10 1-13 5-4 4-6 8-6 13l0 36-109 0 0-109 36 0c5 0 9-2 13-6 4-3 5-8 5-13 0-5-1-9-5-12l-73-74c-4-3-8-5-13-5-5 0-9 2-13 5l-73 74c-4 3-5 7-5 12 0 5 1 10 5 13 4 4 8 6 13 6l36 0 0 109-109 0 0-36c0-5-2-9-6-13-3-4-8-5-13-5-5 0-9 1-12 5l-74 73c-3 4-5 8-5 13 0 5 2 9 5 13l74 73c3 4 7 5 12 5 5 0 10-1 13-5 4-4 6-8 6-13l0-36 109 0 0 109-36 0c-5 0-9 2-13 6-4 3-5 8-5 13 0 5 1 9 5 12l73 74c4 3 8 5 13 5 5 0 9-2 13-5l73-74c4-3 5-7 5-12 0-5-1-10-5-13-4-4-8-6-13-6l-36 0 0-109 109 0 0 36c0 5 2 9 6 13 3 4 8 5 13 5 5 0 9-1 12-5l74-73c3-4 5-8 5-13z"/>
<glyph unicode="&#57496;" d="M274 256c5 0 10-2 13-5 4-4 6-8 6-13 0-5-2-10-6-13-3-4-8-6-13-6-5 0-9 2-13 6-3 3-5 8-5 13 0 5 2 9 5 13 4 3 8 5 13 5z m86-18l145-114c5-4 8-9 7-16-1-7-4-12-10-15l-37-18c-2-1-5-2-8-2-3 0-6 1-9 2l-197 111-31-19c-2-1-3-1-4-1 3-10 4-19 3-28-1-15-7-29-16-42-9-14-22-25-38-35-25-16-51-24-79-24-26 0-47 7-63 22-17 16-25 36-23 59 2 14 7 28 16 42 10 14 22 25 38 35 25 16 51 24 79 24 16 0 30-3 43-8 2 2 4 4 7 6l34 21-34 21c-3 1-5 3-7 6-13-6-27-9-43-9-28 0-54 8-79 24-16 10-28 22-38 35-9 14-14 28-16 42-1 12 1 22 5 33 4 10 10 19 18 26 16 15 37 23 63 23 28 0 54-8 79-24 16-10 29-22 38-35 9-14 15-28 16-43 1-9 0-18-3-27 1 0 2-1 4-2l31-19 197 111c3 2 6 2 9 2 3 0 6 0 8-2l37-18c6-3 9-8 10-15 1-6-2-12-7-16z m-195 74c9 8 11 18 6 31-4 12-14 24-30 33-17 12-36 17-55 17-14 0-25-3-32-10-9-8-11-18-6-31 5-13 15-24 30-33 18-12 36-17 55-17 14 0 25 3 32 10z m-24-213c16 10 26 21 30 34 5 12 3 22-6 30-7 7-18 11-32 11-19 0-37-6-55-17-15-10-25-21-30-34-5-12-3-22 6-30 7-7 18-11 32-11 19 0 38 6 55 17z m51 175l27-16 0 3c0 7 4 12 10 16l4 2-23 14-7-8c-1 0-2-1-3-3-1-2-2-3-3-3-1-1-1-1-2-1 0-1 0-1 0-1z m64-64l27-9 211 165-37 18-219-123 0-32-46-28 3-2c0-1 1-1 2-2 0-1 1-2 3-3 1-2 2-3 3-4l7-7z m201-119l37 19-149 116-50-39c-1-1-2-1-4-2z"/>
<glyph unicode="&#57497;" d="M365 191c0 5-2 10-6 13l-51 52 51 52c4 3 6 8 6 13 0 5-2 9-6 13l-25 25c-4 4-8 6-13 6-5 0-10-2-13-6l-52-51-52 51c-3 4-8 6-13 6-5 0-9-2-13-6l-25-25c-4-4-6-8-6-13 0-5 2-10 6-13l51-52-51-52c-4-3-6-8-6-13 0-5 2-9 6-13l25-25c4-4 8-6 13-6 5 0 10 2 13 6l52 51 52-51c3-4 8-6 13-6 5 0 9 2 13 6l25 25c4 4 6 8 6 13z m110 65c0-40-9-77-29-110-20-34-46-60-80-80-33-20-70-29-110-29-40 0-77 9-110 29-34 20-60 46-80 80-20 33-29 70-29 110 0 40 9 77 29 110 20 34 46 60 80 80 33 20 70 29 110 29 40 0 77-9 110-29 34-20 60-46 80-80 20-33 29-70 29-110z"/>
<glyph unicode="&#57498;" d="M91 347c0-5-1-9-5-12-4-4-8-6-13-6-5 0-9 2-13 6-3 3-5 7-5 12 0 6 2 10 5 13 4 4 8 6 13 6 5 0 9-2 13-6 4-3 5-7 5-13z m46-146l0 183c0 5-2 9-5 13-4 3-8 5-13 5l-82 0c-5 0-10-2-13-5-4-4-6-8-6-13l0-183c0-5 2-9 6-13 3-3 8-5 13-5l82 0c5 0 9 2 13 5 3 4 5 8 5 13z m323 43c10-12 15-26 15-43 0-15-5-28-16-38-11-11-24-17-38-17l-80 0c1-2 2-5 3-7 0-1 2-4 3-6 1-2 2-4 3-5 3-7 6-12 7-16 2-4 4-10 6-17 2-7 3-15 3-22 0-4 0-8 0-11-1-3-1-7-2-13-1-6-2-10-3-14-2-4-4-8-7-13-3-5-7-9-12-12-4-3-10-5-17-7-7-2-15-3-23-3-5 0-10 2-13 5-4 4-7 9-10 15-3 5-4 10-5 15-1 4-3 10-4 17-2 8-3 14-4 17-1 4-2 8-5 14-2 6-5 10-9 14-6 6-16 18-29 34-9 12-19 24-28 35-10 11-18 16-22 17-5 0-9 2-12 5-4 4-6 8-6 13l0 183c0 5 2 9 6 13 3 3 8 5 13 5 6 0 21 5 45 13 15 5 26 9 34 11 9 3 20 5 35 8 15 3 29 5 41 5l37 0c25-1 44-8 56-22 11-14 16-31 14-52 8-7 13-16 16-27 3-12 3-23 0-33 8-12 13-25 12-40 0-6-1-13-4-21z"/>
<glyph unicode="&#57499;" d="M389 173c0-29-9-54-28-75-19-21-44-34-74-39l0-50c0-3-1-5-3-6-1-2-4-3-6-3l-39 0c-2 0-4 1-6 3-2 2-3 4-3 6l0 50c-13 2-25 5-36 9-12 4-22 8-29 13-8 4-15 9-22 13-6 5-10 9-13 11-2 2-4 4-5 5-3 4-3 8 0 12l29 39c1 1 4 3 7 3 2 0 5 0 6-3l1 0c22-19 45-31 69-36 7-1 15-2 22-2 15 0 29 4 40 12 12 8 18 20 18 35 0 5-2 10-4 15-3 5-6 9-10 12-4 3-9 7-17 11-7 4-14 7-19 9-5 2-12 5-22 9-8 3-14 6-18 7-4 2-10 5-18 8-7 3-13 6-17 9-5 2-10 6-17 10-6 4-11 8-15 12-4 4-8 9-12 14-5 6-8 11-10 17-3 5-5 12-6 19-2 7-3 14-3 22 0 26 9 49 28 69 19 20 43 33 73 38l0 52c0 2 1 4 3 6 2 2 4 3 6 3l39 0c2 0 5-1 6-3 2-1 3-3 3-6l0-50c11-2 21-4 31-7 11-3 19-6 25-10 7-3 13-6 18-10 6-4 10-7 12-9 1-1 3-2 4-4 3-3 4-7 1-10l-23-42c-1-3-4-5-6-5-3 0-6 0-8 2-1 1-2 2-4 4-2 1-6 4-11 7-6 4-11 7-17 9-6 3-13 6-21 8-9 2-17 3-25 3-18 0-33-4-44-12-12-8-17-19-17-32 0-5 1-9 2-14 2-4 5-8 9-11 4-4 7-7 11-10 3-2 9-5 16-9 7-3 13-6 17-7 5-2 11-5 20-8 10-4 18-7 23-9 6-2 13-6 22-10 9-5 16-9 22-12 5-4 11-9 17-15 7-6 12-12 15-18 4-6 7-13 9-22 3-8 4-17 4-27z"/>
</font>
</defs>
</svg>
